<svg xmlns="http://www.w3.org/2000/svg" width="24" height="24" viewBox="0 0 24 24">
  <path fill-rule="evenodd" d="M18.1176471,15.7647059 C18.1176471,15.5098039 18.0196078,15.2745098 17.8431373,15.0980392 L15.8039216,13.0588235 C15.627451,12.8823529 15.3823529,12.7843137 15.1372549,12.7843137 C14.8529412,12.7843137 14.627451,12.8921569 14.4313725,13.0980392 C14.754902,13.4215686 15.1372549,13.6960784 15.1372549,14.1960784 C15.1372549,14.7156863 14.7156863,15.1372549 14.1960784,15.1372549 C13.6960784,15.1372549 13.4215686,14.754902 13.0980392,14.4313725 C12.8921569,14.627451 12.7745098,14.8529412 12.7745098,15.1470588 C12.7745098,15.3921569 12.872549,15.6372549 13.0490196,15.8137255 L15.0686275,17.8431373 C15.245098,18.0196078 15.4901961,18.1078431 15.7352941,18.1078431 C15.9803922,18.1078431 16.2254902,18.0196078 16.4019608,17.8529412 L17.8431373,16.4215686 C18.0196078,16.245098 18.1176471,16.0098039 18.1176471,15.7647059 Z M11.2254902,8.85294118 C11.2254902,8.60784314 11.127451,8.3627451 10.9509804,8.18627451 L8.93137255,6.15686275 C8.75490196,5.98039216 8.50980392,5.88235294 8.26470588,5.88235294 C8.01960784,5.88235294 7.7745098,5.98039216 7.59803922,6.14705882 L6.15686275,7.57843137 C5.98039216,7.75490196 5.88235294,7.99019608 5.88235294,8.23529412 C5.88235294,8.49019608 5.98039216,8.7254902 6.15686275,8.90196078 L8.19607843,10.9411765 C8.37254902,11.1176471 8.61764706,11.2058824 8.8627451,11.2058824 C9.14705882,11.2058824 9.37254902,11.1078431 9.56862745,10.9019608 C9.24509804,10.5784314 8.8627451,10.3039216 8.8627451,9.80392157 C8.8627451,9.28431373 9.28431373,8.8627451 9.80392157,8.8627451 C10.3039216,8.8627451 10.5784314,9.24509804 10.9019608,9.56862745 C11.1078431,9.37254902 11.2254902,9.14705882 11.2254902,8.85294118 Z M20,15.7647059 C20,16.5098039 19.6960784,17.2352941 19.1666667,17.754902 L17.7254902,19.1862745 C17.1960784,19.7156863 16.4803922,20 15.7352941,20 C14.9803922,20 14.2647059,19.7058824 13.7352941,19.1666667 L11.7156863,17.1372549 C11.1862745,16.6078431 10.9019608,15.8921569 10.9019608,15.1470588 C10.9019608,14.372549 11.2156863,13.6372549 11.7647059,13.0980392 L10.9019608,12.2352941 C10.3627451,12.7843137 9.6372549,13.0980392 8.8627451,13.0980392 C8.11764706,13.0980392 7.39215686,12.8039216 6.8627451,12.2745098 L4.82352941,10.2352941 C4.28431373,9.69607843 4,8.99019608 4,8.23529412 C4,7.49019608 4.30392157,6.76470588 4.83333333,6.24509804 L6.2745098,4.81372549 C6.80392157,4.28431373 7.51960784,4 8.26470588,4 C9.01960784,4 9.73529412,4.29411765 10.2647059,4.83333333 L12.2843137,6.8627451 C12.8137255,7.39215686 13.0980392,8.10784314 13.0980392,8.85294118 C13.0980392,9.62745098 12.7843137,10.3627451 12.2352941,10.9019608 L13.0980392,11.7647059 C13.6372549,11.2156863 14.3627451,10.9019608 15.1372549,10.9019608 C15.8823529,10.9019608 16.6078431,11.1960784 17.1372549,11.7254902 L19.1764706,13.7647059 C19.7156863,14.3039216 20,15.0098039 20,15.7647059 Z" transform="rotate(90 12 12)"/>
</svg>
