<svg xmlns="http://www.w3.org/2000/svg" width="24" height="24">
    <path fill-rule="evenodd" d="M8.235 18.118c.255 0 .49-.098.667-.275l2.04-2.04a.95.95 0 0 0-.04-1.372c-.324.324-.598.706-1.098.706a.941.941 0 0 1-.941-.94c0-.5.382-.775.706-1.099a.95.95 0 0 0-1.382-.049l-2.03 2.02a.941.941 0 0 0-.265.666c0 .245.088.49.255.667l1.431 1.441a.928.928 0 0 0 .657.275zm6.912-6.893a.95.95 0 0 0 .667-.274l2.03-2.02a.95.95 0 0 0 .274-.666.985.985 0 0 0-.265-.667l-1.431-1.441a.934.934 0 0 0-1.324 0l-2.04 2.04a.941.941 0 0 0-.264.666c0 .284.098.51.304.706.324-.324.598-.706 1.098-.706.52 0 .941.421.941.94 0 .5-.382.775-.706 1.099.196.206.422.323.716.323zM8.235 20c-.745 0-1.47-.304-1.99-.833l-1.431-1.442A2.803 2.803 0 0 1 4 15.735c0-.755.294-1.47.833-2l2.03-2.02a2.803 2.803 0 0 1 1.99-.813c.774 0 1.51.314 2.049.863l.863-.863a2.848 2.848 0 0 1-.863-2.04c0-.744.294-1.47.823-2l2.04-2.038a2.794 2.794 0 0 1 2-.824c.745 0 1.47.304 1.99.833l1.431 1.442c.53.529.814 1.245.814 1.99 0 .755-.294 1.47-.833 2l-2.03 2.02c-.53.529-1.245.813-1.99.813a2.87 2.87 0 0 1-2.049-.863l-.863.863c.55.54.863 1.265.863 2.04 0 .744-.294 1.47-.823 2l-2.04 2.038c-.539.54-1.245.824-2 .824z"/>
</svg>
