<svg xmlns="http://www.w3.org/2000/svg" xmlns:xlink="http://www.w3.org/1999/xlink" width="40" height="24">
    <defs>
        <path id="a" d="M34.4 17.6c0 .44-.36.8-.8.8H6.4c-.442 0-.8-.36-.8-.8v-.8a1.6 1.6 0 0 0 1.6-1.6V8.8a1.6 1.6 0 0 0-1.6-1.6v-.8a.8.8 0 0 1 .8-.8h27.2c.44 0 .8.358.8.8v11.2zM33.6 4H6.4A2.403 2.403 0 0 0 4 6.4V17.6C4 18.923 5.077 20 6.4 20h27.2c1.323 0 2.4-1.077 2.4-2.4V6.4C36 5.077 34.923 4 33.6 4zm-13.933 8.184L16 9.669V14.4l3.667 2.2v-4.416zm.666 0V16.6L24 14.4V9.669l-3.667 2.515zm-3.746-2.936L20 7.2l3.413 2.048L20 11.588l-3.413-2.34z"/>
    </defs>
    <use fill-rule="evenodd" xlink:href="#a"/>
</svg>
