<svg xmlns="http://www.w3.org/2000/svg" width="24" height="24">
    <path fill-rule="evenodd" d="M6.143 18.857h2.571v-2.571H6.143v2.571zm3.143 0h2.857v-2.571H9.286v2.571zm-3.143-3.143h2.571v-2.857H6.143v2.857zm3.143 0h2.857v-2.857H9.286v2.857zm-3.143-3.428h2.571V9.714H6.143v2.572zm6.571 6.571h2.857v-2.571h-2.857v2.571zm-3.428-6.571h2.857V9.714H9.286v2.572zm6.857 6.571h2.571v-2.571h-2.571v2.571zm-3.429-3.143h2.857v-2.857h-2.857v2.857zM9.571 8V5.429a.294.294 0 0 0-.285-.286h-.572a.294.294 0 0 0-.285.286V8c0 .152.133.286.285.286h.572A.294.294 0 0 0 9.57 8zm6.572 7.714h2.571v-2.857h-2.571v2.857zm-3.429-3.428h2.857V9.714h-2.857v2.572zm3.429 0h2.571V9.714h-2.571v2.572zM16.429 8V5.429a.294.294 0 0 0-.286-.286h-.572a.294.294 0 0 0-.285.286V8c0 .152.134.286.285.286h.572A.294.294 0 0 0 16.429 8zm3.428-.571v11.428A1.15 1.15 0 0 1 18.714 20H6.143A1.15 1.15 0 0 1 5 18.857V7.43a1.15 1.15 0 0 1 1.143-1.143h1.143V5.43c0-.787.643-1.43 1.428-1.43h.572c.785 0 1.428.643 1.428 1.429v.857h3.429v-.857c0-.786.643-1.429 1.428-1.429h.572c.786 0 1.428.643 1.428 1.429v.857h1.143a1.15 1.15 0 0 1 1.143 1.143z"/>
</svg>
