<svg xmlns="http://www.w3.org/2000/svg" width="24" height="24">
    <path fill-rule="evenodd" d="M12 17.02c.73 0 1.404-.18 2.02-.54a3.995 3.995 0 0 0 1.46-1.46 3.936 3.936 0 0 0 .54-2.02c0-.73-.18-1.404-.54-2.02a3.995 3.995 0 0 0-1.46-1.46A3.936 3.936 0 0 0 12 8.98c-.73 0-1.404.18-2.02.54a3.995 3.995 0 0 0-1.46 1.46A3.936 3.936 0 0 0 7.98 13c0 .73.18 1.404.54 2.02a3.995 3.995 0 0 0 1.46 1.46 3.936 3.936 0 0 0 2.02.54zM9.596 5h4.808l1.461 1.577h2.558c.436 0 .808.16 1.115.48.308.321.462.7.462 1.135v9.616c0 .436-.154.814-.462 1.134a1.49 1.49 0 0 1-1.115.481H5.577a1.49 1.49 0 0 1-1.115-.48A1.584 1.584 0 0 1 4 17.807V8.192c0-.436.154-.814.462-1.134a1.49 1.49 0 0 1 1.115-.481h2.558L9.596 5zm-.154 8c0-.462.116-.888.346-1.279.231-.39.542-.702.933-.933.391-.23.817-.346 1.279-.346.462 0 .888.116 1.279.346.39.231.702.542.933.933.23.391.346.817.346 1.279 0 .462-.116.888-.346 1.279-.231.39-.542.702-.933.933-.391.23-.817.346-1.279.346-.462 0-.888-.116-1.279-.346a2.601 2.601 0 0 1-.933-.933A2.471 2.471 0 0 1 9.442 13z"/>
</svg>
