<svg xmlns="http://www.w3.org/2000/svg" width="24" height="24" viewBox="0 0 24 24">
  <path fill-rule="evenodd" d="M17.5466025,13.7161756 L17.5466025,16.7757066 C17.5466025,18.305472 16.305472,19.5466025 14.7757066,19.5466025 L6.77089597,19.5466025 C5.24113049,19.5466025 4,18.305472 4,16.7757066 L4,8.77089597 C4,7.24113049 5.24113049,6 6.77089597,6 L14.7757066,6 C15.1605532,6 15.5453999,6.07696933 15.901383,6.24052916 C15.9879735,6.27901383 16.0553217,6.36560433 16.074564,6.461816 C16.0938064,6.56764883 16.0649429,6.66386049 15.9879735,6.74082983 L15.5165364,7.21226699 C15.4588094,7.26999399 15.3722189,7.30847865 15.2952495,7.30847865 C15.266386,7.30847865 15.2375225,7.29885749 15.208659,7.28923632 C15.0643416,7.25075165 14.9200241,7.23150932 14.7757066,7.23150932 L6.77089597,7.23150932 C5.92423331,7.23150932 5.23150932,7.92423331 5.23150932,8.77089597 L5.23150932,16.7757066 C5.23150932,17.6223692 5.92423331,18.3150932 6.77089597,18.3150932 L14.7757066,18.3150932 C15.6223692,18.3150932 16.3150932,17.6223692 16.3150932,16.7757066 L16.3150932,14.3319302 C16.3150932,14.2549609 16.3439567,14.1779916 16.4016837,14.1202646 L17.0174384,13.5045099 C17.0847865,13.4371618 17.1617559,13.4082983 17.2387252,13.4082983 C17.2772099,13.4082983 17.3156945,13.4179194 17.3541792,13.4371618 C17.4696332,13.4852676 17.5466025,13.5911004 17.5466025,13.7161756 Z M19.769092,9.01142514 L11.9374624,16.8430547 C11.6295851,17.1509321 11.1485268,17.1509321 10.8406494,16.8430547 L6.70354781,12.7059531 C6.39567048,12.3980758 6.39567048,11.9170174 6.70354781,11.6091401 L7.76187613,10.5508118 C8.06975346,10.2429345 8.55081179,10.2429345 8.85868912,10.5508118 L11.3890559,13.0811786 L17.6139507,6.85628382 C17.921828,6.54840649 18.4028863,6.54840649 18.7107637,6.85628382 L19.769092,7.91461215 C20.0769693,8.22248948 20.0769693,8.70354781 19.769092,9.01142514 Z"/>
</svg>
