<svg xmlns="http://www.w3.org/2000/svg" width="24" height="24">
    <path fill-rule="evenodd" d="M11.972 4a7.942 7.942 0 0 1 4.026 1.071 8.017 8.017 0 0 1 3.143 3.321l-6.624-.348c-1.875-.107-3.66.947-4.276 2.714L5.777 6.973A7.993 7.993 0 0 1 11.972 4zM5.303 7.616l3.009 5.919c.848 1.669 2.642 2.687 4.5 2.339L10.757 19.9A7.989 7.989 0 0 1 4 12c0-1.617.482-3.125 1.303-4.384zm14.16 1.508a7.993 7.993 0 0 1-3.465 9.803 7.98 7.98 0 0 1-4.445 1.062l3.615-5.562c1.027-1.58 1.009-3.642-.214-5.07l4.508-.233zm-7.464.179a2.694 2.694 0 0 1 2.696 2.696 2.694 2.694 0 0 1-2.696 2.696A2.694 2.694 0 0 1 9.303 12a2.694 2.694 0 0 1 2.696-2.696z"/>
</svg>
