<svg xmlns="http://www.w3.org/2000/svg" width="24" height="24">
    <path fill-rule="evenodd" d="M12.423 7.98v4.212l3.596 2.135-.596 1.02-4.211-2.559V7.981h1.211zM12 18.424c1.154 0 2.23-.295 3.23-.885a6.228 6.228 0 0 0 2.308-2.307c.59-1 .885-2.077.885-3.231s-.295-2.23-.885-3.23a6.228 6.228 0 0 0-2.307-2.308c-1-.59-2.077-.885-3.231-.885s-2.23.295-3.23.885A6.228 6.228 0 0 0 6.462 8.77c-.59 1-.885 2.077-.885 3.231s.295 2.23.885 3.23a6.228 6.228 0 0 0 2.307 2.308c1 .59 2.077.885 3.231.885zM12 4c1.462 0 2.814.365 4.058 1.096a7.582 7.582 0 0 1 2.846 2.846A7.868 7.868 0 0 1 20 12a7.868 7.868 0 0 1-1.096 4.058 7.582 7.582 0 0 1-2.846 2.846A7.868 7.868 0 0 1 12 20a7.868 7.868 0 0 1-4.058-1.096 7.726 7.726 0 0 1-2.846-2.866A7.833 7.833 0 0 1 4 12c0-1.449.365-2.795 1.096-4.038a7.873 7.873 0 0 1 2.866-2.866A7.833 7.833 0 0 1 12 4z"/>
</svg>
