<svg xmlns="http://www.w3.org/2000/svg" width="24" height="24">
    <path fill-rule="evenodd" d="M9 15.841l-.437.438a.28.28 0 0 1-.402 0l-4.076-4.076a.28.28 0 0 1 0-.402l4.076-4.076a.28.28 0 0 1 .402 0L9 8.163a.28.28 0 0 1 0 .402l-3.437 3.437L9 15.439a.28.28 0 0 1 0 .402zm5.17-9.331L10.907 17.8a.278.278 0 0 1-.341.193l-.542-.149a.284.284 0 0 1-.193-.35l3.262-11.29a.278.278 0 0 1 .341-.193l.542.149a.284.284 0 0 1 .193.35zm5.746 5.693l-4.076 4.076a.28.28 0 0 1-.402 0L15 15.84a.28.28 0 0 1 0-.402l3.437-3.437L15 8.565a.28.28 0 0 1 0-.402l.437-.438a.28.28 0 0 1 .402 0l4.076 4.076a.28.28 0 0 1 0 .402z"/>
</svg>
