<svg xmlns="http://www.w3.org/2000/svg" width="24" height="24">
    <path fill-rule="evenodd" d="M5.929 14.438l5.383 3.589V14.82L8.33 12.83l-2.401 1.607zm-.554-1.286L7.098 12l-1.723-1.152v2.304zm7.313 4.875l5.383-3.59-2.401-1.607-2.982 1.991v3.206zM12 13.625L14.429 12 12 10.375 9.571 12 12 13.625zM8.33 11.17l2.982-1.991V5.973L5.93 9.563l2.4 1.607zm8.572.83l1.723 1.152v-2.304L16.902 12zm-1.232-.83l2.401-1.607-5.384-3.59V9.18l2.983 1.99zM20 9.563v4.874a.699.699 0 0 1-.304.572l-7.312 4.875A.743.743 0 0 1 12 20a.743.743 0 0 1-.384-.116l-7.312-4.875A.699.699 0 0 1 4 14.437V9.564c0-.224.116-.447.304-.572l7.312-4.875A.743.743 0 0 1 12 4c.134 0 .268.045.384.116l7.312 4.875a.699.699 0 0 1 .304.572z"/>
</svg>
