<svg xmlns="http://www.w3.org/2000/svg" width="24" height="24">
    <path fill-rule="evenodd" d="M12 18.423c1.154 0 2.23-.295 3.23-.885a6.228 6.228 0 0 0 2.308-2.307c.59-1 .885-2.077.885-3.231s-.295-2.23-.885-3.23a6.228 6.228 0 0 0-2.307-2.308c-1-.59-2.077-.885-3.231-.885s-2.23.295-3.23.885a6.228 6.228 0 0 0-2.308 2.307c-.59 1-.885 2.077-.885 3.231s.295 2.23.885 3.23a6.228 6.228 0 0 0 2.307 2.308c1 .59 2.077.885 3.231.885zM12 4c1.462 0 2.814.365 4.058 1.096a7.582 7.582 0 0 1 2.846 2.846A7.868 7.868 0 0 1 20 12a7.868 7.868 0 0 1-1.096 4.058 7.582 7.582 0 0 1-2.846 2.846A7.868 7.868 0 0 1 12 20a7.868 7.868 0 0 1-4.058-1.096 7.726 7.726 0 0 1-2.846-2.866A7.833 7.833 0 0 1 4 12c0-1.449.365-2.795 1.096-4.038a7.873 7.873 0 0 1 2.866-2.866A7.833 7.833 0 0 1 12 4zm.975 6.278a.984.984 0 0 0-.148-.201 1.525 1.525 0 0 0-.423-.26 1.32 1.32 0 0 0-.52-.105c-.538 0-.929.217-1.172.653-.218.372-.327.879-.327 1.52v.23c0 .641.109 1.148.327 1.52.243.436.634.653 1.173.653.371 0 .686-.102.942-.307.256-.205.385-.481.385-.827h1.423c0 .628-.276 1.18-.827 1.654-.257.23-.526.397-.808.5a3.085 3.085 0 0 1-1.115.192c-1 0-1.77-.314-2.308-.942-.513-.59-.77-1.404-.77-2.443v-.23c0-.488.065-.94.193-1.356a2.86 2.86 0 0 1 .558-1.048c.269-.308.59-.545.961-.712a3.088 3.088 0 0 1 1.366-.307c.397 0 .769.064 1.115.192s.628.301.846.52c.526.55.789 1.166.789 1.845h-1.423c0-.166-.039-.327-.116-.48a19.042 19.042 0 0 1-.121-.261z"/>
</svg>
