<svg xmlns="http://www.w3.org/2000/svg" width="24" height="24">
    <path fill-rule="evenodd" d="M14.667 18.292c-.104-.605-.5-2.688-1.459-5.188-.01 0-.03.01-.041.01 0 0-4.052 1.417-5.365 4.271-.062-.052-.156-.114-.156-.114A6.864 6.864 0 0 0 12 18.833a6.89 6.89 0 0 0 2.667-.541zm-1.927-6.323a19.41 19.41 0 0 0-.553-1.156c-3.52 1.052-6.895.968-7.01.968-.01.073-.01.146-.01.219 0 1.75.666 3.354 1.75 4.563 1.864-3.323 5.552-4.51 5.552-4.51.094-.032.187-.053.27-.084zM11.625 9.76a41.267 41.267 0 0 0-2.542-3.937 6.844 6.844 0 0 0-3.77 4.77c.177 0 3.03.032 6.312-.833zm7.125 3.323c-.146-.041-2.052-.646-4.26-.302a30.498 30.498 0 0 1 1.333 4.886 6.86 6.86 0 0 0 2.927-4.584zm-8.4-7.713a.027.027 0 0 1 .015-.005h-.01l-.005.005zm6.16 1.505a6.78 6.78 0 0 0-6.125-1.51 33.37 33.37 0 0 1 2.563 3.979c2.573-.959 3.542-2.438 3.562-2.469zm2.323 5.052a6.848 6.848 0 0 0-1.552-4.27c-.02.02-1.114 1.603-3.812 2.708.156.322.312.656.458.99.052.114.094.239.146.353 2.354-.302 4.677.209 4.76.22zM20 12c0 4.417-3.583 8-8 8s-8-3.583-8-8 3.583-8 8-8 8 3.583 8 8z"/>
</svg>
