<svg xmlns="http://www.w3.org/2000/svg" xmlns:xlink="http://www.w3.org/1999/xlink" width="24" height="24" viewBox="0 0 24 24">
  <defs>
    <polygon id="a" points="0 0 16 0 16 16 0 16"/>
  </defs>
  <g fill-rule="evenodd" transform="translate(4 4)">
    <path d="M6.4004 9.6299L6.4004 15.8399C6.0194 15.7599 5.6504 15.6599 5.2994 15.5299L5.2994 11.1199 1.7004 12.9299C1.5894 12.7899 1.4804 12.6509 1.3904 12.4999L4.9904 10.6999 2.6204 10.6999.8494 11.5899C.5404 10.9809.3104 10.3199.1604 9.6299L6.4004 9.6299zM15.5303 10.7002L13.3103 10.7002 15.1303 11.6202C14.8903 12.0902 14.6103 12.5302 14.2903 12.9392L10.6603 11.1202 10.6603 15.5402C10.3203 15.6702 9.9703 15.7692 9.5993 15.8402L9.5993 9.6302 15.8403 9.6302C15.7593 10.0002 15.6603 10.3602 15.5303 10.7002M15.8496 6.4297L9.5996 6.4297 9.5996.1597C9.9706.2307 10.3206.3297 10.6606.4597L10.6606 4.8797 14.2896 3.0607C14.3906 3.1897 14.4906 3.3297 14.5896 3.4697L10.9396 5.2997 13.3106 5.2997 15.1296 4.3797C15.4596 5.0197 15.7006 5.7007 15.8496 6.4297M6.4004.1602L6.4004 6.4302.1504 6.4302C.2304 6.0402.3394 5.6602.4604 5.3002L2.6504 5.3002.8494 4.4002C1.0894 3.9302 1.3704 3.4802 1.7004 3.0702L5.2994 4.8802 5.2994.4702C5.6504.3402 6.0194.2402 6.4004.1602"/>
    <path d="M10.6602,0.46 L10.6602,4.88 L14.2902,3.061 C13.3602,1.88 12.0992,0.96 10.6602,0.46 Z M1.7002,3.07 L5.3002,4.88 L5.3002,0.47 C3.8602,0.981 2.6202,1.89 1.7002,3.07 Z M10.6602,11.12 L10.6602,15.54 C12.0992,15.04 13.3602,14.12 14.2902,12.939 L10.6602,11.12 Z M5.3002,11.12 L5.3002,15.53 C3.8602,15.02 2.6202,14.11 1.7002,12.93 L5.3002,11.12 Z"/>
    <mask id="b">
      <use xlink:href="#a"/>
    </mask>
    <path d="M14.5898,3.4697 L10.9398,5.2997 L13.3108,5.2997 L15.1298,4.3797 C14.9708,4.0607 14.7898,3.7597 14.5898,3.4697 Z M0.8498,4.4007 C0.7098,4.6897 0.5798,4.9907 0.4598,5.2997 L2.6508,5.2997 L0.8498,4.4007 Z M15.8498,6.4297 L9.5998,6.4297 L9.5998,0.1597 C9.0798,0.0607 8.5498,-0.0003 7.9998,-0.0003 C7.4498,-0.0003 6.9198,0.0607 6.4008,0.1597 L6.4008,6.4297 L0.1508,6.4297 C0.0498,6.9397 -0.0002,7.4597 -0.0002,7.9997 C-0.0002,8.5607 0.0608,9.1107 0.1598,9.6297 L6.4008,9.6297 L6.4008,15.8397 C6.9198,15.9397 7.4498,15.9997 7.9998,15.9997 C8.5498,15.9997 9.0798,15.9397 9.5998,15.8397 L9.5998,9.6297 L15.8398,9.6297 C15.9398,9.1107 15.9998,8.5607 15.9998,7.9997 C15.9998,7.4597 15.9498,6.9397 15.8498,6.4297 Z M13.3108,10.6997 L15.1298,11.6197 C15.2798,11.3297 15.4198,11.0197 15.5298,10.6997 L13.3108,10.6997 Z M4.9898,10.6997 L1.3908,12.4997 C1.1798,12.2097 1.0098,11.9097 0.8498,11.5897 L2.6198,10.6997 L4.9898,10.6997 Z" mask="url(#b)"/>
  </g>
</svg>
