<svg xmlns="http://www.w3.org/2000/svg" width="24" height="24">
    <path fill-rule="evenodd" d="M12.062 20.508c-3.446 0-6.187-2.017-7.446-4.901C3.206 12.4 4.33 7.267 6.84 5l-.098 2.509c.125-.16 1.08-.206 1.232 0 .518-.991 2.188-1.732 3.527-1.759-.51.429-1.688 1.991-1.59 2.786.652.205 1.652.214 2.179.25.16.089.134.633-.187 1.08 0 0-.42.58-1.554.786l.134 1.687-1.241-.598c-.402 1.018.562 1.92 1.562 1.75 1.107-.188 1.5-.911 2.277-.866.768.044 1.071.473.973.875 0 0-.125.482-.955.401-.705 1.116-1.643 1.607-3.16 1.474 2.303 1.91 5.41.178 6.195-1.384.786-1.554.099-3.866-.687-4.518.929.402 1.571.812 1.91 1.714.18-2-.74-4.267-2.383-5.598 3.089.902 4.973 3.295 5.026 7.116.054 3.821-3.383 7.803-7.937 7.803z"/>
</svg>
