<svg xmlns="http://www.w3.org/2000/svg" width="24" height="24">
    <path fill-rule="evenodd" d="M10 19a1 1 0 1 0-2 0 1 1 0 0 0 2 0zm0-12a1 1 0 1 0-2 0 1 1 0 0 0 2 0zm6.667 1.333a1 1 0 1 0-2 0 1 1 0 0 0 2 0zm1 0a2 2 0 0 1-1 1.73c-.032 3.76-2.698 4.593-4.47 5.156-1.655.52-2.197.77-2.197 1.781v.27A2 2 0 0 1 11 19a2 2 0 0 1-4 0 2 2 0 0 1 1-1.73V8.73A2 2 0 0 1 7 7a2 2 0 0 1 4 0 2 2 0 0 1-1 1.73v5.176c.531-.26 1.094-.437 1.604-.594 1.938-.614 3.042-1.072 3.063-3.25a2 2 0 0 1-1-1.729 2 2 0 0 1 4 0z"/>
</svg>
