<svg xmlns="http://www.w3.org/2000/svg" width="24" height="24">
    <path fill-rule="evenodd" d="M7.321 6.429C8.893 4.809 10.786 4 13 4c2.214 0 4.101.804 5.66 2.41C20.22 8.019 21 9.953 21 12.215c0 1.786-.512 3.393-1.536 4.822-1.024 1.428-2.333 2.416-3.928 2.964h-.143c-.286 0-.429-.143-.429-.429l.018-.803c.012-.512.018-.982.018-1.41 0-.691-.19-1.203-.571-1.537 1.095-.142 1.982-.494 2.66-1.053.679-.56 1.018-1.554 1.018-2.982 0-.857-.274-1.596-.821-2.215.238-.69.214-1.416-.072-2.178h-.178c-.548 0-1.226.286-2.036.857a7.511 7.511 0 0 0-2-.286c-.643 0-1.31.096-2 .286-.81-.571-1.488-.857-2.036-.857h-.178c-.286.762-.31 1.488-.072 2.178-.547.62-.821 1.358-.821 2.215 0 1.428.333 2.422 1 2.982s1.547.91 2.643 1.053c-.262.262-.429.631-.5 1.108a2.047 2.047 0 0 1-.929.214c-.595 0-1.06-.298-1.393-.893-.31-.524-.726-.81-1.25-.857-.5 0-.512.167-.035.5.357.19.654.595.892 1.214.024.095.072.208.143.34.072.13.268.303.59.517.321.215.708.322 1.16.322.334 0 .596-.024.786-.072v1.393c0 .262-.131.393-.393.393h-.143c-1.619-.548-2.934-1.53-3.946-2.946C5.506 15.637 5 14.024 5 12.214c0-2.262.774-4.19 2.321-5.785z"/>
</svg>
