<svg xmlns="http://www.w3.org/2000/svg" width="24" height="24">
    <path fill-rule="evenodd" d="M12.552 12.094c0-.26-.031-.469-.062-.667H8.719v1.375h2.26c-.083.583-.677 1.719-2.26 1.719-1.375 0-2.49-1.125-2.49-2.521s1.115-2.52 2.49-2.52c.77 0 1.291.322 1.594.614l1.083-1.052A3.863 3.863 0 0 0 8.719 8c-2.219 0-4 1.792-4 4s1.781 4 4 4c2.302 0 3.833-1.625 3.833-3.906zm3.594.479h1.135v-1.146h-1.135v-1.146H15v1.146h-1.146v1.146H15v1.146h1.146v-1.146zM19 7v10a3 3 0 0 1-3 3H6a3 3 0 0 1-3-3V7a3 3 0 0 1 3-3h10a3 3 0 0 1 3 3z"/>
</svg>
