<svg xmlns="http://www.w3.org/2000/svg" width="24" height="24">
    <path fill-rule="evenodd" d="M14.666 12A2.672 2.672 0 0 0 12 9.334 2.672 2.672 0 0 0 9.334 12 2.672 2.672 0 0 0 12 14.666 2.672 2.672 0 0 0 14.666 12zm1.438 0A4.099 4.099 0 0 1 12 16.104 4.099 4.099 0 0 1 7.896 12 4.099 4.099 0 0 1 12 7.896 4.099 4.099 0 0 1 16.104 12zm1.125-4.27a.956.956 0 0 1-.959.958.956.956 0 0 1-.958-.958c0-.532.427-.959.958-.959.532 0 .959.427.959.959zM12 5.438c-1.167 0-3.666-.094-4.718.323a2.558 2.558 0 0 0-.917.604 2.558 2.558 0 0 0-.604.917c-.417 1.052-.323 3.551-.323 4.718 0 1.167-.094 3.666.323 4.718.146.365.323.636.604.917.281.281.552.458.917.604 1.052.417 3.551.323 4.718.323 1.167 0 3.666.094 4.718-.323.365-.146.636-.323.917-.604.281-.281.458-.552.604-.917.417-1.052.323-3.551.323-4.718 0-1.167.094-3.666-.323-4.718a2.558 2.558 0 0 0-.604-.917 2.558 2.558 0 0 0-.917-.604c-1.052-.417-3.551-.323-4.718-.323zM20 12c0 1.104.01 2.198-.053 3.302-.062 1.281-.354 2.416-1.291 3.354-.938.937-2.073 1.229-3.354 1.291C14.198 20.01 13.104 20 12 20s-2.198.01-3.302-.052c-1.281-.062-2.416-.354-3.354-1.291-.937-.938-1.229-2.073-1.291-3.354C3.99 14.198 4 13.104 4 12s-.01-2.198.052-3.302c.062-1.281.354-2.416 1.291-3.354.938-.937 2.073-1.229 3.354-1.291C9.802 3.99 10.896 4 12 4s2.198-.01 3.302.052c1.281.062 2.416.354 3.354 1.291.937.938 1.229 2.073 1.291 3.354C20.01 9.802 20 10.896 20 12z"/>
</svg>
