<svg xmlns="http://www.w3.org/2000/svg" width="24" height="24">
    <path d="M4 4v16h16V4H4zm8.707 12.479c0 1.557-.914 2.267-2.246 2.267-1.204 0-1.9-.621-2.257-1.375l1.225-.739c.235.418.45.772.967.772.493 0 .808-.193.808-.947v-5.11h1.503v5.132zm3.557 2.267c-1.396 0-2.3-.664-2.739-1.535l1.225-.707c.321.525.743.914 1.482.914.622 0 1.022-.31 1.022-.743 0-.514-.408-.696-1.097-1l-.375-.16c-1.086-.461-1.803-1.044-1.803-2.269 0-1.128.86-1.985 2.2-1.985.957 0 1.642.332 2.135 1.203l-1.171.75c-.257-.46-.536-.643-.968-.643-.44 0-.718.279-.718.643 0 .45.279.632.925.915l.375.16c1.279.547 1.997 1.107 1.997 2.365 0 1.35-1.065 2.092-2.49 2.092z"/>
</svg>
