<svg xmlns="http://www.w3.org/2000/svg" width="24" height="24" viewBox="0 0 24 24">
  <path fill-rule="evenodd" d="M16.5714286,13.2857143 L16.5714286,16.1428571 C16.5714286,17.5625 15.4196429,18.7142857 14,18.7142857 L6.57142857,18.7142857 C5.15178571,18.7142857 4,17.5625 4,16.1428571 L4,8.71428571 C4,7.29464286 5.15178571,6.14285714 6.57142857,6.14285714 L12.8571429,6.14285714 C13.0178571,6.14285714 13.1428571,6.26785714 13.1428571,6.42857143 L13.1428571,7 C13.1428571,7.16071429 13.0178571,7.28571429 12.8571429,7.28571429 L6.57142857,7.28571429 C5.78571429,7.28571429 5.14285714,7.92857143 5.14285714,8.71428571 L5.14285714,16.1428571 C5.14285714,16.9285714 5.78571429,17.5714286 6.57142857,17.5714286 L14,17.5714286 C14.7857143,17.5714286 15.4285714,16.9285714 15.4285714,16.1428571 L15.4285714,13.2857143 C15.4285714,13.125 15.5535714,13 15.7142857,13 L16.2857143,13 C16.4464286,13 16.5714286,13.125 16.5714286,13.2857143 Z M20,5.57142857 L20,10.1428571 C20,10.4553571 19.7410714,10.7142857 19.4285714,10.7142857 C19.2767857,10.7142857 19.1339286,10.6517857 19.0267857,10.5446429 L17.4553571,8.97321429 L11.6339286,14.7946429 C11.5803571,14.8482143 11.5,14.8839286 11.4285714,14.8839286 C11.3571429,14.8839286 11.2767857,14.8482143 11.2232143,14.7946429 L10.2053571,13.7767857 C10.1517857,13.7232143 10.1160714,13.6428571 10.1160714,13.5714286 C10.1160714,13.5 10.1517857,13.4196429 10.2053571,13.3660714 L16.0267857,7.54464286 L14.4553571,5.97321429 C14.3482143,5.86607143 14.2857143,5.72321429 14.2857143,5.57142857 C14.2857143,5.25892857 14.5446429,5 14.8571429,5 L19.4285714,5 C19.7410714,5 20,5.25892857 20,5.57142857 Z"/>
</svg>
