<svg xmlns="http://www.w3.org/2000/svg" width="24" height="24">
    <path fill-rule="evenodd" d="M17.571 13.286v2.857A2.572 2.572 0 0 1 15 18.714H7.571A2.572 2.572 0 0 1 5 16.143V8.714a2.572 2.572 0 0 1 2.571-2.571h6.286c.16 0 .286.125.286.286V7c0 .16-.125.286-.286.286H7.571c-.785 0-1.428.643-1.428 1.428v7.429c0 .786.643 1.428 1.428 1.428H15c.786 0 1.429-.642 1.429-1.428v-2.857c0-.161.125-.286.285-.286h.572c.16 0 .285.125.285.286zM21 5.57v4.572a.575.575 0 0 1-.571.571.568.568 0 0 1-.402-.17l-1.572-1.57-5.821 5.82a.308.308 0 0 1-.205.09.308.308 0 0 1-.206-.09l-1.018-1.017a.308.308 0 0 1-.089-.206c0-.071.036-.151.09-.205l5.82-5.821-1.57-1.572a.568.568 0 0 1-.17-.402c0-.312.259-.571.571-.571h4.572c.312 0 .571.259.571.571z"/>
</svg>
