<svg xmlns="http://www.w3.org/2000/svg" width="105" height="48" viewBox="0 0 105 48">
  <path fill-rule="evenodd" d="M12.38,16.16 L12.38,31 L9.32,31 L9.32,29.42 C8.9333314,29.9800028 8.4533362,30.4033319 7.88,30.69 C7.3066638,30.9766681 6.653337,31.12 5.92,31.12 C4.9066616,31.12 4.0166705,30.8900023 3.25,30.43 C2.4833295,29.9699977 1.8900021,29.3200042 1.47,28.48 C1.0499979,27.6399958 0.84,26.6733388 0.84,25.58 C0.84,24.4999946 1.0466646,23.5466708 1.46,22.72 C1.8733354,21.8933292 2.4599962,21.2533356 3.22,20.8 C3.9800038,20.3466644 4.8533284,20.12 5.84,20.12 C7.3600076,20.12 8.519996,20.686661 9.32,21.82 L9.32,16.16 L12.38,16.16 Z M6.64,28.64 C7.4266706,28.64 8.0699975,28.3633361 8.57,27.81 C9.0700025,27.2566639 9.32,26.5400044 9.32,25.66 C9.32,24.7799956 9.0700025,24.0633361 8.57,23.51 C8.0699975,22.9566639 7.4266706,22.68 6.64,22.68 C5.839996,22.68 5.1900025,22.9566639 4.69,23.51 C4.1899975,24.0633361 3.9333334,24.7799956 3.92,25.66 C3.9333334,26.5400044 4.1899975,27.2566639 4.69,27.81 C5.1900025,28.3633361 5.839996,28.64 6.64,28.64 Z M21.7,31 L21.7,29.74 C21.3399982,30.1933356 20.8733362,30.5399988 20.3,30.78 C19.7266638,31.0200012 19.0666704,31.14 18.32,31.14 C17.186661,31.14 16.28667,30.8300031 15.62,30.21 C14.95333,29.5899969 14.62,28.780005 14.62,27.78 C14.62,26.7666616 14.9766631,25.9766695 15.69,25.41 C16.4033369,24.8433305 17.4133268,24.5533334 18.72,24.54 L21.68,24.54 L21.68,24.34 C21.68,23.7666638 21.4900019,23.3233349 21.11,23.01 C20.7299981,22.6966651 20.173337,22.54 19.44,22.54 C18.439995,22.54 17.373339,22.8533302 16.24,23.48 L15.28,21.36 C16.1333376,20.9333312 16.9333296,20.620001 17.68,20.42 C18.4266704,20.219999 19.2466622,20.12 20.14,20.12 C21.5800072,20.12 22.6966627,20.4599966 23.49,21.14 C24.2833373,21.8200034 24.6866666,22.7666606 24.7,23.98 L24.72,31 L21.7,31 Z M19.18,28.94 C19.8200032,28.94 20.373331,28.7866682 20.84,28.48 C21.306669,28.1733318 21.5866662,27.786669 21.68,27.32 L21.68,26.36 L19.26,26.36 C18.659997,26.36 18.2166681,26.4566657 17.93,26.65 C17.6433319,26.8433343 17.5,27.1533312 17.5,27.58 C17.5,27.9933354 17.6499985,28.3233321 17.95,28.57 C18.2500015,28.8166679 18.6599974,28.94 19.18,28.94 Z M34.18,20.12 C35.380006,20.12 36.3366631,20.4933296 37.05,21.24 C37.7633369,21.9866704 38.12,22.9866604 38.12,24.24 L38.12,31 L35.04,31 L35.04,25.14 C35.04,24.4599966 34.8500019,23.9233353 34.47,23.53 C34.0899981,23.1366647 33.5733366,22.94 32.92,22.94 C32.1599962,22.9533334 31.5600022,23.2166641 31.12,23.73 C30.6799978,24.2433359 30.46,24.899996 30.46,25.7 L30.46,31 L27.38,31 L27.38,20.24 L30.46,20.24 L30.46,22.12 C31.2066704,20.8133268 32.446658,20.1466668 34.18,20.12 Z M40.78,20.24 L43.86,20.24 L43.86,31 L40.78,31 L40.78,20.24 Z M42.3,15.46 C42.7933358,15.46 43.1966651,15.6199984 43.51,15.94 C43.8233349,16.2600016 43.98,16.6733308 43.98,17.18 C43.98,17.6866692 43.8233349,18.0999984 43.51,18.42 C43.1966651,18.7400016 42.7933358,18.9 42.3,18.9 C41.8199976,18.9 41.4233349,18.7366683 41.11,18.41 C40.7966651,18.0833317 40.64,17.6733358 40.64,17.18 C40.64,16.6733308 40.7966651,16.2600016 41.11,15.94 C41.4233349,15.6199984 41.8199976,15.46 42.3,15.46 Z M46.92,16.16 L50,16.16 L50,31 L46.92,31 L46.92,16.16 Z M63.3,20.24 L63.3,31 L60.24,31 L60.24,29.1 C59.506663,30.4466734 58.306675,31.12 56.64,31.12 C55.4533274,31.12 54.5100035,30.7500037 53.81,30.01 C53.1099965,29.2699963 52.76,28.266673 52.76,27 L52.76,20.24 L55.84,20.24 L55.84,26.12 C55.84,26.8000034 56.0199982,27.3333314 56.38,27.72 C56.7400018,28.1066686 57.2333302,28.3 57.86,28.3 C58.593337,28.2866666 59.1733312,28.0266692 59.6,27.52 C60.0266688,27.0133308 60.24,26.360004 60.24,25.56 L60.24,20.24 L63.3,20.24 Z M73.46,23.9 C72.8466636,23.1399962 72.0466716,22.76 71.06,22.76 C70.2866628,22.76 69.6566691,23.0233307 69.17,23.55 C68.6833309,24.0766693 68.44,24.773329 68.44,25.64 C68.44,26.506671 68.6799976,27.2099973 69.16,27.75 C69.6400024,28.2900027 70.2533296,28.56 71,28.56 C72.1200056,28.56 72.9533306,28.1400042 73.5,27.3 L75.62,28.74 C75.1666644,29.5000038 74.5300041,30.0866646 73.71,30.5 C72.8899959,30.9133354 71.9333388,31.12 70.84,31.12 C69.7599946,31.12 68.8066708,30.8933356 67.98,30.44 C67.1533292,29.9866644 66.5100023,29.3466708 66.05,28.52 C65.5899977,27.6933292 65.36,26.7400054 65.36,25.66 C65.36,24.5666612 65.5899977,23.6033375 66.05,22.77 C66.5100023,21.9366625 67.1566625,21.2900023 67.99,20.83 C68.8233375,20.3699977 69.7866612,20.14 70.88,20.14 C71.9066718,20.14 72.819996,20.3366647 73.62,20.73 C74.420004,21.1233353 75.0599976,21.6799964 75.54,22.4 L73.46,23.9 Z M83.5,31 L83.5,29.74 C83.1399982,30.1933356 82.6733362,30.5399988 82.1,30.78 C81.5266638,31.0200012 80.8666704,31.14 80.12,31.14 C78.986661,31.14 78.08667,30.8300031 77.42,30.21 C76.75333,29.5899969 76.42,28.780005 76.42,27.78 C76.42,26.7666616 76.7766631,25.9766695 77.49,25.41 C78.2033369,24.8433305 79.2133268,24.5533334 80.52,24.54 L83.48,24.54 L83.48,24.34 C83.48,23.7666638 83.2900019,23.3233349 82.91,23.01 C82.5299981,22.6966651 81.973337,22.54 81.24,22.54 C80.239995,22.54 79.173339,22.8533302 78.04,23.48 L77.08,21.36 C77.9333376,20.9333312 78.7333296,20.620001 79.48,20.42 C80.2266704,20.219999 81.0466622,20.12 81.94,20.12 C83.3800072,20.12 84.4966627,20.4599966 85.29,21.14 C86.0833373,21.8200034 86.4866666,22.7666606 86.5,23.98 L86.52,31 L83.5,31 Z M80.98,28.94 C81.6200032,28.94 82.173331,28.7866682 82.64,28.48 C83.106669,28.1733318 83.3866662,27.786669 83.48,27.32 L83.48,26.36 L81.06,26.36 C80.459997,26.36 80.0166681,26.4566657 79.73,26.65 C79.4433319,26.8433343 79.3,27.1533312 79.3,27.58 C79.3,27.9933354 79.4499985,28.3233321 79.75,28.57 C80.0500015,28.8166679 80.4599974,28.94 80.98,28.94 Z M96.36,23.9 C95.7466636,23.1399962 94.9466716,22.76 93.96,22.76 C93.1866628,22.76 92.5566691,23.0233307 92.07,23.55 C91.5833309,24.0766693 91.34,24.773329 91.34,25.64 C91.34,26.506671 91.5799976,27.2099973 92.06,27.75 C92.5400024,28.2900027 93.1533296,28.56 93.9,28.56 C95.0200056,28.56 95.8533306,28.1400042 96.4,27.3 L98.52,28.74 C98.0666644,29.5000038 97.4300041,30.0866646 96.61,30.5 C95.7899959,30.9133354 94.8333388,31.12 93.74,31.12 C92.6599946,31.12 91.7066708,30.8933356 90.88,30.44 C90.0533292,29.9866644 89.4100023,29.3466708 88.95,28.52 C88.4899977,27.6933292 88.26,26.7400054 88.26,25.66 C88.26,24.5666612 88.4899977,23.6033375 88.95,22.77 C89.4100023,21.9366625 90.0566625,21.2900023 90.89,20.83 C91.7233375,20.3699977 92.6866612,20.14 93.78,20.14 C94.8066718,20.14 95.719996,20.3366647 96.52,20.73 C97.320004,21.1233353 97.9599976,21.6799964 98.44,22.4 L96.36,23.9 Z M100.44,20.24 L103.52,20.24 L103.52,31 L100.44,31 L100.44,20.24 Z M101.96,15.46 C102.453336,15.46 102.856665,15.6199984 103.17,15.94 C103.483335,16.2600016 103.64,16.6733308 103.64,17.18 C103.64,17.6866692 103.483335,18.0999984 103.17,18.42 C102.856665,18.7400016 102.453336,18.9 101.96,18.9 C101.479998,18.9 101.083335,18.7366683 100.77,18.41 C100.456665,18.0833317 100.3,17.6733358 100.3,17.18 C100.3,16.6733308 100.456665,16.2600016 100.77,15.94 C101.083335,15.6199984 101.479998,15.46 101.96,15.46 Z"/>
</svg>
