<svg xmlns="http://www.w3.org/2000/svg" width="24" height="24">
    <path fill-rule="evenodd" d="M16.808 5v3.192H7.192V5h9.616zm.788 7.212c.23 0 .426-.077.587-.231.16-.154.24-.34.24-.558a.81.81 0 0 0-.24-.577.783.783 0 0 0-.587-.25c-.23 0-.42.08-.567.24a.835.835 0 0 0-.221.587.776.776 0 0 0 .788.789zm-2.404 5.596v-3.981H8.808v3.98h6.384zm2.404-8.789c.423 0 .82.11 1.192.327.372.218.667.513.885.885.218.372.327.769.327 1.192v4.808h-3.192v3.192H7.192v-3.192H4v-4.808c0-.423.109-.82.327-1.192.218-.372.513-.667.885-.885a2.316 2.316 0 0 1 1.192-.327h11.192z"/>
</svg>
