<svg xmlns="http://www.w3.org/2000/svg" width="24" height="24">
    <path d="M18.774 12.923a3.27 3.27 0 0 0-1.45.339c-.147-.299-.3-.56-.324-.755-.03-.229-.063-.364-.028-.635s.193-.655.19-.683c-.002-.027-.035-.165-.357-.168-.323-.002-.6.063-.633.148a3.091 3.091 0 0 0-.132.48c-.057.293-.645 1.342-.977 1.889-.11-.213-.203-.402-.223-.552-.03-.229-.062-.364-.027-.635s.192-.655.19-.683c-.003-.027-.035-.165-.358-.168-.322-.002-.6.063-.632.148-.032.086-.067.286-.132.48-.065.193-.848 1.94-1.053 2.393-.105.231-.195.417-.26.542-.064.126-.005.008-.01.023a8.99 8.99 0 0 1-.087.168v.003c-.042.08-.09.153-.112.153-.015 0-.048-.211.007-.5.118-.607.395-1.55.392-1.583-.002-.018.053-.18-.182-.268-.227-.083-.31.055-.33.055-.02 0-.035.05-.035.05s.253-1.064-.485-1.064c-.46 0-1.1.507-1.414.966-.198.108-.625.341-1.075.59l-.517.286-.035-.038c-.895-.958-2.547-1.636-2.477-2.923.025-.47.187-1.701 3.176-3.197 2.45-1.224 4.41-.888 4.747-.14.484 1.066-1.048 3.051-3.592 3.337-.97.108-1.48-.268-1.607-.409-.132-.148-.152-.156-.202-.128-.083.045-.03.176 0 .253.075.199.387.55.92.726.467.153 1.604.238 2.978-.296 1.545-.598 2.747-2.261 2.395-3.654-.36-1.415-2.697-1.88-4.909-1.091-1.317.469-2.742 1.207-3.766 2.168-1.217 1.144-1.412 2.14-1.332 2.556.285 1.478 2.314 2.442 3.126 3.154l-.112.063c-.408.203-1.955 1.016-2.342 1.874-.437.974.072 1.672.407 1.767 1.045.29 2.115-.233 2.69-1.094.574-.86.504-1.985.24-2.497-.003-.007-.008-.012-.01-.02a36.236 36.236 0 0 1 .907-.522c-.1.271-.173.598-.21 1.07-.045.551.182 1.266.477 1.547.13.123.288.126.385.126.345 0 .5-.286.672-.627.213-.417.4-.901.4-.901s-.235 1.31.408 1.31c.235 0 .47-.304.574-.46v.003l.018-.03c.025-.038.037-.06.037-.06V15.8c.095-.163.303-.537.615-1.154.405-.798.793-1.794.793-1.794s.035.243.155.647c.07.239.217.5.334.753l-.152.206.002.005c-.075.1-.16.208-.247.313-.32.382-.7.818-.75.944-.06.148-.045.258.07.343.085.066.235.076.393.063.287-.02.49-.09.587-.135.155-.055.335-.143.505-.266.312-.231.502-.562.485-.999a2.085 2.085 0 0 0-.183-.707c.028-.04.058-.083.085-.126.495-.725.877-1.52.877-1.52s.035.243.155.647c.06.203.178.426.285.645-.465.379-.752.818-.852 1.106-.185.535-.04.776.232.83.123.026.298-.032.428-.087a1.98 1.98 0 0 0 .54-.279c.312-.23.615-.554.595-.993a1.873 1.873 0 0 0-.135-.587c.392-.166.902-.256 1.552-.18 1.392.162 1.664 1.035 1.612 1.4-.053.365-.345.566-.443.626-.097.06-.127.083-.12.128.013.066.058.063.14.048.115-.02.73-.296.758-.971.04-.853-.778-1.791-2.225-1.784zm-10.73 3.63c-.46.505-1.104.696-1.381.535-.298-.173-.18-.916.387-1.453.345-.326.79-.627 1.085-.813l.285-.173.03-.017c.022-.015.047-.028.072-.043.208.763.008 1.435-.477 1.965zm3.36-2.293c-.16.394-.498 1.398-.702 1.345-.175-.045-.283-.81-.035-1.563.125-.379.39-.83.547-1.006.252-.284.53-.374.595-.261.087.148-.305 1.24-.405 1.485zm2.774 1.33c-.067.035-.13.058-.16.04-.022-.012.028-.06.028-.06s.347-.374.484-.544c.08-.1.173-.219.273-.35l.002.041c-.002.45-.432.753-.627.873zm2.14-.489c-.05-.035-.043-.153.124-.52.065-.142.215-.383.475-.614a.91.91 0 0 1 .048.27c-.003.565-.405.776-.648.864z"/>
</svg>
