<svg xmlns="http://www.w3.org/2000/svg" width="24" height="24">
    <path fill-rule="evenodd" d="M17.048 15.296c.411 0 .797.106 1.157.318.36.213.646.498.858.858.212.36.318.746.318 1.157 0 .411-.106.8-.318 1.166a2.44 2.44 0 0 1-.858.877 2.19 2.19 0 0 1-1.157.328 2.19 2.19 0 0 1-1.156-.328 2.44 2.44 0 0 1-.858-.877 2.291 2.291 0 0 1-.318-1.166c0-.257.013-.43.038-.52l-5.687-3.316a2.37 2.37 0 0 1-1.657.636c-.424 0-.823-.11-1.196-.328a2.444 2.444 0 0 1-.886-.887A2.325 2.325 0 0 1 5 12.02c0-.424.11-.822.328-1.195.218-.373.514-.668.886-.887A2.325 2.325 0 0 1 7.41 9.61a2.37 2.37 0 0 1 1.657.636l5.649-3.277a3.237 3.237 0 0 1-.077-.56c0-.423.109-.822.327-1.195.219-.372.514-.668.887-.886A2.325 2.325 0 0 1 17.048 4c.424 0 .823.11 1.195.328.373.218.669.514.887.886.219.373.328.772.328 1.196 0 .424-.11.822-.328 1.195a2.444 2.444 0 0 1-.887.887 2.325 2.325 0 0 1-1.195.327c-.591 0-1.144-.225-1.658-.674L9.742 11.46c.052.232.077.411.077.54 0 .129-.025.321-.077.578l5.725 3.316c.463-.398.99-.598 1.581-.598z"/>
</svg>
