<svg xmlns="http://www.w3.org/2000/svg" width="24" height="24">
    <path fill-rule="evenodd" d="M5.657 12l4.867 5.194L8.18 12H5.657zM12 18.03L14.726 12H9.274L12 18.03zM8.203 11l1.594-3H7.75L5.5 11h2.703zm5.273 6.194L18.343 12H15.82l-2.344 5.194zM9.336 11h5.328L13.07 8h-2.14l-1.594 3zm6.46 0H18.5l-2.25-3h-2.046l1.594 3zm1.102-3.797l3 4a.497.497 0 0 1-.031.64l-7.5 8a.496.496 0 0 1-.367.156.496.496 0 0 1-.367-.156l-7.5-8a.497.497 0 0 1-.03-.64l2.999-4A.482.482 0 0 1 7.5 7h9c.156 0 .304.07.398.203z"/>
</svg>
