<svg xmlns="http://www.w3.org/2000/svg" width="24" height="24">
    <path fill-rule="evenodd" d="M7.775 8.696c0-.598-.48-1.078-1.079-1.078-.598 0-1.078.48-1.078 1.078 0 .598.48 1.079 1.078 1.079.598 0 1.079-.48 1.079-1.079zm8.99 4.853c0 .287-.118.565-.312.759l-4.137 4.145a1.085 1.085 0 0 1-1.525 0L4.767 12.42C4.337 12 4 11.182 4 10.583V7.078C4 6.488 4.489 6 5.078 6h3.505c.599 0 1.416.337 1.846.767l6.024 6.016c.194.202.312.48.312.766zm3.235 0c0 .287-.118.565-.312.759l-4.137 4.145a1.12 1.12 0 0 1-.766.312c-.439 0-.658-.203-.944-.497l3.96-3.96a1.085 1.085 0 0 0 0-1.525l-6.024-6.016C11.347 6.337 10.53 6 9.932 6h1.887c.598 0 1.415.337 1.845.767l6.024 6.016c.194.202.312.48.312.766z"/>
</svg>
