<svg xmlns="http://www.w3.org/2000/svg" width="24" height="24">
    <path fill-rule="evenodd" d="M20 7.543a7.05 7.05 0 0 1-1.645 1.696c.01.142.01.284.01.426 0 4.335-3.299 9.33-9.33 9.33A9.266 9.266 0 0 1 4 17.523c.264.03.518.04.792.04a6.567 6.567 0 0 0 4.07-1.4 3.285 3.285 0 0 1-3.065-2.275c.203.03.406.051.62.051.294 0 .588-.04.862-.112a3.28 3.28 0 0 1-2.63-3.218v-.04c.437.243.945.395 1.483.416A3.277 3.277 0 0 1 4.67 8.254c0-.61.162-1.168.447-1.655a9.32 9.32 0 0 0 6.761 3.431 3.701 3.701 0 0 1-.081-.75A3.278 3.278 0 0 1 15.077 6a3.27 3.27 0 0 1 2.395 1.036 6.456 6.456 0 0 0 2.081-.792 3.27 3.27 0 0 1-1.441 1.807c.66-.071 1.3-.254 1.888-.508z"/>
</svg>
