<svg xmlns="http://www.w3.org/2000/svg" viewBox="0 0 600 600">
    <title>
        Design Systems Illustration
    </title>
    <rect width="256" height="512" x="227.45" y="41.86" fill="#ebeff5" rx="28" ry="28" transform="rotate(-15 355.463 297.861)"/>
    <rect width="484" height="230" x="113.45" y="182.86" fill="#fff" stroke="#f7fafc" stroke-miterlimit="10" stroke-width="2" rx="23.85" ry="23.85" transform="rotate(75 355.46 297.86)"/>
    <rect width="48" height="4" x="204.38" y="95.94" fill="#8693a6" rx="1.96" ry="1.96" transform="rotate(-15 228.392 97.954)"/>
    <path fill="#8693a6" d="M359.23 60.8a4 4 0 1 1-4.9-2.82 4 4 0 0 1 4.9 2.82zm10.56-7a4 4 0 1 0 4.89 2.82 4 4 0 0 0-4.89-2.78zm15.45-4.15a4 4 0 1 0 4.9 2.83 4 4 0 0 0-4.9-2.79z"/>
    <rect width="128" height="4" x="343.26" y="520.09" fill="#bec5d1" rx="2" ry="2" transform="rotate(-15 407.273 522.093)"/>
    <g>
        <rect width="190" height="46" x="301.04" y="437.91" fill="#f7fafc" rx="23" ry="23" transform="rotate(-15 396.047 460.92)"/>
        <path fill="none" stroke="#bec5d1" stroke-dasharray="8.008804321289062,8.008804321289062" stroke-miterlimit="10" stroke-width="2" d="M471.54 464.49l-139.1 37.27a23 23 0 0 1-28.16-16.26 23 23 0 0 1 16.26-28.17l139.09-37.27a23 23 0 0 1 28.17 16.26 23 23 0 0 1-16.26 28.17z"/>
        <rect width="218" height="48" x="111.48" y="462.48" fill="#3c4a66" rx="24" ry="24" transform="rotate(-15 220.476 486.489)"/>
        <path fill="#f7fafc" d="M155.32 510.25c2.54-7 10.43-11.26 17.15-13.5 7.59-2.52 14.05-.54 21.47 1.29 10.28 2.52 20.66.36 28.57-6.85 5.13-4.67 11.17-13.62 19.29-9.74 4.34 2.07 7 4.64 12.22 3.76 5.75-1 10.69-4.72 15.3-8 5.21-3.77 10.16-7.75 14.18-12.81 1.2-1.49-.91-3.63-2.12-2.12C276.8 468 271 472.38 265 476.55c-3.11 2.17-6.46 4.49-10.19 5.42-4.49 1.13-7.23-.65-10.9-2.75-11.46-6.55-18.83 7.15-26.89 12.51a27 27 0 0 1-20.57 3.81c-6.21-1.27-12-3.75-18.49-3.09-9.86 1-22 7.22-25.54 17-.66 1.82 2.24 2.61 2.89.8z"/>
    </g>
    <g>
        <rect width="190" height="190" x="257.82" y="204.6" fill="#f7fafc" rx="16" ry="16" transform="rotate(-15 351.183 298.25)"/>
        <rect width="190" height="190" x="257.82" y="204.6" fill="none" stroke="#bec5d1" stroke-dasharray="7.96200704574585,7.96200704574585" stroke-miterlimit="10" stroke-width="2" rx="16" ry="16" transform="rotate(-15 352.8 299.597)"/>
        <g>
            <rect width="210" height="164" x="70.22" y="221.59" fill="#fff" stroke="#ebeff5" stroke-miterlimit="10" stroke-width="2" rx="16" ry="16" transform="rotate(-15 175.242 303.576)"/>
            <g fill="none" stroke="#bec5d1" stroke-miterlimit="10" stroke-width="2">
                <path d="M143.25 301.15l.6 2.26-2.25.6"/>
                <path stroke-dasharray="4.666666507720947,4.666666507720947" d="M137.09 305.22l-42.82 11.47"/>
                <path d="M92.01 317.3l-2.25.6-.6-2.25"/>
                <path stroke-dasharray="4.666666507720947,4.666666507720947" d="M87.95 311.14l-11.48-42.82"/>
                <path d="M75.87 266.06l-.6-2.25 2.25-.6"/>
                <path stroke-dasharray="4.666666507720947,4.666666507720947" d="M82.03 262l42.82-11.48"/>
                <path d="M127.1 249.92l2.26-.6.6 2.25"/>
                <path stroke-dasharray="4.666666507720947,4.666666507720947" d="M131.17 256.08l11.47 42.82"/>
            </g>
            <rect width="110" height="16" x="140.18" y="231.96" fill="#8693a6" rx="8" ry="8" transform="rotate(-15 195.167 239.975)"/>
            <g fill="#bec5d1">
                <rect width="188" height="8" x="90.07" y="321.03" rx="4" ry="4" transform="rotate(-15 184.086 325.025)"/>
                <rect width="188" height="8" x="94.73" y="338.42" rx="4" ry="4" transform="rotate(-15 188.753 342.408)"/>
                <rect width="188" height="8" x="98.87" y="353.87" rx="4" ry="4" transform="rotate(-15 192.861 357.862)"/>
            </g>
            <path fill="#8693a6" d="M192.39 271.48a8 8 0 1 1-9.8-5.66 8 8 0 0 1 9.8 5.66zm-33.95.81a8 8 0 1 0 9.8 5.66 8 8 0 0 0-9.8-5.66zm48.3-12.94a8 8 0 1 0 9.79 5.66 8 8 0 0 0-9.79-5.66z"/>
            <path fill="#ebeff5" stroke="#bec5d1" stroke-miterlimit="10" stroke-width="2.25954" d="M17.236 239.99l52.38-14.04 14.04 52.38-52.38 14.04z"/>
            <circle cx="49.94" cy="258.17" r="16" fill="#3c4a66"/>
        </g>
    </g>
    <g>
        <rect width="190" height="46" x="216.4" y="122.05" fill="#f7fafc" rx="16" ry="16" transform="rotate(-15 311.405 145.047)"/>
        <path fill="none" stroke="#bec5d1" stroke-dasharray="7.937582969665527,7.937582969665527" stroke-miterlimit="10" stroke-width="2" d="M393.67 146.82l-152.62 40.9a16 16 0 0 1-19.6-11.32l-3.62-13.52a16 16 0 0 1 11.31-19.6l152.62-40.89a16 16 0 0 1 19.6 11.31l3.64 13.53a16 16 0 0 1-11.33 19.59z"/>
        <path fill="#bec5d1" d="M584 84.43l-212.5 56.94a4 4 0 0 1-4.9-2.82 4 4 0 0 1 2.83-4.9l212.5-56.94a4 4 0 0 1 4.9 2.82 4 4 0 0 1-2.83 4.9zm-1.31-20.35a4 4 0 0 0-4.9-2.83l-212.5 56.94a4 4 0 0 0-2.83 4.9 4 4 0 0 0 4.9 2.83L579.86 69a4 4 0 0 0 2.83-4.92zm-4.14-15.45a4 4 0 0 0-4.9-2.83l-212.5 56.94a4 4 0 0 0-2.83 4.9 4 4 0 0 0 4.9 2.82l212.5-56.94a4 4 0 0 0 2.83-4.89z"/>
        <rect width="228" height="16" x="349.26" y="50.81" fill="#8693a6" rx="8" ry="8" transform="rotate(-15 463.241 58.823)"/>
    </g>
</svg>
