<svg xmlns="http://www.w3.org/2000/svg" xmlns:xlink="http://www.w3.org/1999/xlink" width="560" height="336" viewBox="0 0 560 336">
    <defs>
        <path id="a" d="M26.325 10.112l-2.161 2.162-4.438-4.438 2.162-2.161a1.14 1.14 0 0 1 .84-.342c.331 0 .61.114.838.342l2.76 2.759c.227.227.34.507.34.839 0 .332-.113.611-.34.839zM5.333 22.229L18.446 9.116l4.438 4.438L9.77 26.667H5.333v-4.438z"/>
        <path id="c" d="M15.963 5.334a10.59 10.59 0 0 1 5.368 1.428 10.69 10.69 0 0 1 4.19 4.428l-8.832-.464c-2.5-.143-4.88 1.261-5.702 3.618L7.702 9.297a10.657 10.657 0 0 1 8.26-3.963zm-8.892 4.82l4.012 7.892c1.13 2.226 3.523 3.583 5.999 3.119l-2.738 5.368A10.651 10.651 0 0 1 5.334 16c0-2.155.642-4.166 1.737-5.845zm18.879 2.012a10.657 10.657 0 0 1-4.619 13.07 10.64 10.64 0 0 1-5.928 1.416l4.821-7.416c1.37-2.106 1.345-4.856-.285-6.76l6.01-.31zm-9.951.238a3.592 3.592 0 0 1 3.594 3.595A3.592 3.592 0 0 1 16 19.594a3.592 3.592 0 0 1-3.595-3.595A3.592 3.592 0 0 1 16 12.404z"/>
        <path id="e" d="M19.556 24.389c-.14-.806-.667-3.583-1.945-6.917-.014 0-.042.014-.055.014 0 0-5.403 1.889-7.153 5.695-.084-.07-.209-.153-.209-.153A9.152 9.152 0 0 0 16 25.11a9.186 9.186 0 0 0 3.556-.722zm-2.57-8.43a25.88 25.88 0 0 0-.736-1.542c-4.694 1.402-9.194 1.291-9.347 1.291-.014.098-.014.195-.014.292 0 2.333.889 4.472 2.333 6.083 2.486-4.43 7.403-6.014 7.403-6.014.125-.041.25-.069.361-.11zM15.5 13.013a55.023 55.023 0 0 0-3.389-5.25 9.126 9.126 0 0 0-5.028 6.361c.236 0 4.042.042 8.417-1.111zm9.5 4.43c-.194-.055-2.736-.86-5.68-.402a40.664 40.664 0 0 1 1.777 6.514A9.147 9.147 0 0 0 25 17.444zM13.8 7.16a.036.036 0 0 1 .02-.007c-.008 0-.011 0-.014.002l-.006.005zm8.214 2.007a9.041 9.041 0 0 0-8.167-2.014c.14.18 1.861 2.444 3.417 5.305 3.43-1.277 4.722-3.25 4.75-3.291zm3.097 6.736a9.13 9.13 0 0 0-2.07-5.695c-.027.028-1.485 2.14-5.083 3.611.209.431.417.875.611 1.32.07.153.125.32.195.472 3.139-.403 6.236.278 6.347.292zm1.556.097c0 5.889-4.778 10.667-10.667 10.667S5.333 21.889 5.333 16 10.111 5.333 16 5.333 26.667 10.111 26.667 16z"/>
        <path id="g" d="M25.032 17.23a4.36 4.36 0 0 0-1.932.452c-.197-.398-.4-.746-.434-1.007-.04-.304-.083-.485-.036-.846.046-.361.256-.873.253-.91-.003-.037-.047-.22-.477-.224-.43-.003-.8.083-.843.197a4.122 4.122 0 0 0-.176.64c-.077.39-.86 1.79-1.303 2.518-.147-.284-.27-.535-.297-.736-.04-.304-.083-.485-.037-.846.047-.361.257-.873.254-.91-.004-.037-.047-.22-.477-.224-.43-.004-.8.083-.843.197-.043.114-.09.382-.177.64-.086.257-1.13 2.585-1.402 3.19-.14.309-.26.556-.347.723-.087.168-.007.01-.013.03l-.117.225v.003c-.057.107-.12.204-.15.204-.02 0-.063-.28.01-.666.157-.81.527-2.067.523-2.11-.003-.024.07-.242-.243-.359-.303-.11-.413.074-.44.074-.027 0-.047.067-.047.067s.337-1.419-.646-1.419c-.613 0-1.466.676-1.886 1.288-.263.144-.833.455-1.433.787l-.69.381-.047-.05c-1.193-1.278-3.395-2.181-3.302-3.898.033-.625.25-2.268 4.236-4.262 3.265-1.632 5.878-1.184 6.328-.187.646 1.422-1.397 4.068-4.789 4.45-1.293.143-1.973-.359-2.143-.546-.176-.197-.203-.207-.27-.17-.11.06-.04.234 0 .337.1.265.517.733 1.227.967.623.204 2.14.318 3.972-.395 2.06-.796 3.662-3.014 3.192-4.87-.48-1.888-3.595-2.506-6.544-1.456-1.757.626-3.656 1.61-5.022 2.89-1.623 1.526-1.883 2.854-1.776 3.41.38 1.97 3.085 3.255 4.168 4.205l-.15.084c-.543.27-2.606 1.354-3.122 2.499-.583 1.298.097 2.228.543 2.355 1.393.388 2.82-.311 3.586-1.459.766-1.147.673-2.646.32-3.329-.004-.01-.01-.016-.014-.026.14-.084.284-.168.427-.251.276-.164.546-.315.783-.445-.133.361-.23.796-.28 1.425-.06.736.243 1.69.637 2.064.173.164.383.167.513.167.46 0 .666-.381.896-.836.283-.555.533-1.201.533-1.201s-.313 1.746.544 1.746c.313 0 .626-.404.766-.612v.003l.023-.04a.98.98 0 0 0 .05-.08v-.01c.127-.217.404-.716.82-1.539.54-1.064 1.056-2.392 1.056-2.392s.047.325.207.863c.093.318.29.666.447 1.004-.127.174-.204.274-.204.274s0 .004.004.007c-.1.134-.214.278-.33.418-.427.509-.933 1.09-1 1.258-.08.197-.06.345.093.458.114.087.314.1.523.084a2.32 2.32 0 0 0 .784-.18c.206-.074.446-.191.673-.355.416-.308.67-.75.646-1.332-.013-.321-.116-.642-.243-.943.037-.054.077-.11.113-.168.66-.966 1.17-2.027 1.17-2.027s.047.325.207.863c.08.271.236.569.38.86-.62.505-1.004 1.09-1.137 1.475-.247.713-.053 1.034.31 1.108.163.033.397-.044.57-.117a2.64 2.64 0 0 0 .72-.372c.416-.308.82-.74.793-1.325a2.497 2.497 0 0 0-.18-.782c.523-.221 1.203-.342 2.07-.241 1.855.217 2.219 1.381 2.149 1.867-.07.488-.46.756-.59.836-.13.08-.17.11-.16.17.016.088.076.084.186.064.154-.027.973-.395 1.01-1.295.053-1.137-1.036-2.388-2.966-2.378zm-14.306 4.842c-.613.672-1.473.926-1.842.712-.397-.23-.24-1.22.516-1.937.46-.435 1.053-.836 1.446-1.084.09-.053.22-.134.38-.23l.04-.024c.03-.02.064-.037.097-.057.276 1.017.01 1.914-.637 2.62zm4.48-3.058c-.214.525-.664 1.863-.937 1.793-.234-.06-.377-1.08-.047-2.084.167-.505.52-1.108.73-1.342.336-.378.706-.498.793-.348.117.198-.407 1.653-.54 1.98zm3.698 1.773c-.09.047-.173.077-.213.054-.03-.017.036-.08.036-.08s.464-.5.647-.727c.107-.134.23-.29.363-.465 0 .017.003.034.003.054-.003.599-.576 1.003-.836 1.164zm2.853-.652c-.067-.047-.057-.204.166-.693.087-.19.287-.512.633-.82.04.128.064.248.064.362-.004.753-.54 1.034-.863 1.15z"/>
        <path id="i" d="M7.542 16l6.49 6.926-3.125-6.927H7.542zM16 24.04L19.635 16h-7.27L16 24.04zm-5.062-9.374l2.125-4h-2.73l-2.999 4h3.604zm7.03 8.26l6.49-6.927h-3.365l-3.124 6.927zm-5.52-8.26h7.104l-2.125-4h-2.854l-2.125 4zm8.614 0h3.604l-3-4h-2.729l2.125 4zm1.469-5.062l4 5.333a.663.663 0 0 1-.042.854l-10 10.666a.66.66 0 0 1-.489.208.66.66 0 0 1-.49-.208L5.511 15.79a.663.663 0 0 1-.041-.854l4-5.333a.643.643 0 0 1 .53-.27h12c.208 0 .406.093.53.27z"/>
        <path id="k" d="M6.667 6.667l1.668 18.847L15.842 28l7.508-2.486 1.668-18.847H6.667zm14.963 3.81l-.23 2.252-5.51 2.347-.014.005h5.328l-.611 6.98L15.9 23.43l-4.722-1.39-.306-3.52h2.337l.153 1.824 2.514.633 2.614-.733.177-2.933-7.948-.024v-.005l-.01.005-.171-2.205 5.357-2.224.31-.128h-5.873l-.277-2.253H21.63z"/>
        <path id="m" d="M12 21.122l-.583.583a.373.373 0 0 1-.536 0L5.447 16.27a.373.373 0 0 1 0-.537l5.434-5.433a.373.373 0 0 1 .536 0l.583.583a.373.373 0 0 1 0 .536l-4.582 4.583L12 20.585a.373.373 0 0 1 0 .537zM18.892 8.68l-4.35 15.054a.37.37 0 0 1-.454.256l-.723-.198a.378.378 0 0 1-.257-.466l4.35-15.054a.37.37 0 0 1 .454-.257l.723.198a.378.378 0 0 1 .257.467zm7.661 7.59l-5.434 5.435a.373.373 0 0 1-.536 0L20 21.122a.373.373 0 0 1 0-.537l4.582-4.582L20 11.42a.373.373 0 0 1 0-.536l.583-.583a.373.373 0 0 1 .536 0l5.434 5.433a.373.373 0 0 1 0 .537z"/>
        <path id="o" d="M16.083 27.344c-4.595 0-8.25-2.69-9.928-6.535C4.274 16.535 5.774 9.69 9.119 6.667l-.131 3.345c.167-.215 1.44-.274 1.643 0 .69-1.322 2.916-2.31 4.702-2.345-.679.571-2.25 2.654-2.119 3.714.869.274 2.202.285 2.905.333.214.12.178.845-.25 1.44 0 0-.56.774-2.072 1.048l.179 2.25-1.655-.798c-.535 1.357.75 2.56 2.083 2.334 1.477-.25 2-1.215 3.036-1.155 1.024.06 1.429.63 1.298 1.167 0 0-.167.642-1.274.535-.94 1.488-2.19 2.143-4.214 1.964 3.071 2.548 7.214.239 8.261-1.845 1.048-2.071.131-5.154-.916-6.023 1.238.535 2.095 1.083 2.547 2.285.238-2.666-.988-5.69-3.178-7.464 4.119 1.203 6.63 4.393 6.702 9.488.071 5.095-4.512 10.404-10.583 10.404z"/>
        <path id="q" d="M6.667 6.667l1.668 18.847L15.818 28l7.532-2.486 1.668-18.847H6.667zm14.728 6.09h-8.783l.196 2.353H21.2l-.65 7.066-4.679 1.286v.014h-.053l-4.716-1.3-.287-3.61h2.28l.167 1.815 2.556.69 2.567-.69.286-2.962h-7.976l-.611-6.933h11.522l-.21 2.271z"/>
        <path id="s" d="M5.333 5.333v21.334h21.334V5.333H5.333zm11.61 16.638c0 2.077-1.22 3.024-2.995 3.024-1.605 0-2.534-.828-3.01-1.833l1.633-.986c.315.557.6 1.029 1.29 1.029.658 0 1.077-.257 1.077-1.262v-6.814h2.005v6.842zm4.743 3.024c-1.862 0-3.067-.885-3.653-2.047l1.634-.943c.428.7.99 1.219 1.976 1.219.828 0 1.362-.414 1.362-.99 0-.686-.543-.93-1.462-1.334l-.5-.214c-1.448-.615-2.405-1.39-2.405-3.024 0-1.505 1.148-2.648 2.933-2.648 1.277 0 2.19.443 2.848 1.605l-1.562 1c-.343-.614-.714-.857-1.29-.857-.586 0-.957.371-.957.857 0 .6.371.843 1.233 1.22l.5.213c1.705.729 2.662 1.477 2.662 3.153 0 1.8-1.42 2.79-3.32 2.79z"/>
        <path id="u" d="M13.333 25.333a1.334 1.334 0 1 0-2.667.001 1.334 1.334 0 0 0 2.667 0zm0-16a1.334 1.334 0 1 0-2.667.001 1.334 1.334 0 0 0 2.667 0zm8.89 1.778a1.334 1.334 0 1 0-2.668 0 1.334 1.334 0 0 0 2.667 0zm1.333 0a2.67 2.67 0 0 1-1.334 2.306c-.041 5.014-3.597 6.125-5.958 6.875-2.208.694-2.93 1.027-2.93 2.375v.36a2.668 2.668 0 0 1 1.333 2.306 2.667 2.667 0 0 1-5.334 0c0-.986.542-1.847 1.334-2.305v-11.39a2.668 2.668 0 0 1-1.334-2.305 2.667 2.667 0 0 1 5.334 0c0 .986-.542 1.848-1.334 2.306v6.903c.709-.348 1.459-.584 2.14-.792 2.583-.82 4.055-1.43 4.083-4.333a2.668 2.668 0 0 1-1.334-2.306 2.667 2.667 0 0 1 5.334 0z"/>
    </defs>
    <g fill="none" fill-rule="evenodd">
        <path d="M0 0h560v336H0z"/>
        <g transform="translate(301 84)">
            <mask id="b" fill="#fff">
                <use xlink:href="#a"/>
            </mask>
            <use fill="#F7FAFC" xlink:href="#a"/>
            <g fill="#1E2C42" mask="url(#b)">
                <path d="M0 0h32v32H0z"/>
            </g>
        </g>
        <g transform="translate(172 62)">
            <mask id="d" fill="#fff">
                <use xlink:href="#c"/>
            </mask>
            <use fill="#C4CDD5" xlink:href="#c"/>
            <g fill="#1E2C42" mask="url(#d)">
                <path d="M0 0h32v32H0z"/>
            </g>
        </g>
        <g transform="translate(368 36)">
            <mask id="f" fill="#fff">
                <use xlink:href="#e"/>
            </mask>
            <use fill="#222C38" xlink:href="#e"/>
            <g fill="#1E2C42" mask="url(#f)">
                <path d="M0 0h32v32H0z"/>
            </g>
        </g>
        <g transform="translate(320 153)">
            <mask id="h" fill="#fff">
                <use xlink:href="#g"/>
            </mask>
            <use fill="#F7FAFC" fill-rule="nonzero" xlink:href="#g"/>
            <g fill="#1E2C42" mask="url(#h)">
                <path d="M0 0h32v32H0z"/>
            </g>
        </g>
        <g transform="translate(259 23)">
            <mask id="j" fill="#fff">
                <use xlink:href="#i"/>
            </mask>
            <use fill="#C4CDD5" xlink:href="#i"/>
            <g fill="#1E2C42" mask="url(#j)">
                <path d="M0 0h32v32H0z"/>
            </g>
        </g>
        <g transform="translate(245 160)">
            <mask id="l" fill="#fff">
                <use xlink:href="#k"/>
            </mask>
            <use fill="#F7FAFC" fill-rule="nonzero" xlink:href="#k"/>
            <g fill="#1E2C42" mask="url(#l)">
                <path d="M0 0h32v32H0z"/>
            </g>
        </g>
        <g transform="translate(461 104)">
            <mask id="n" fill="#fff">
                <use xlink:href="#m"/>
            </mask>
            <use fill="#222C38" xlink:href="#m"/>
            <g fill="#1E2C42" mask="url(#n)">
                <path d="M0 0h32v32H0z"/>
            </g>
        </g>
        <g transform="translate(467 29)">
            <mask id="p" fill="#fff">
                <use xlink:href="#o"/>
            </mask>
            <use fill="#C4CDD5" xlink:href="#o"/>
            <g fill="#1E2C42" mask="url(#p)">
                <path d="M0 0h32v32H0z"/>
            </g>
        </g>
        <g transform="translate(472 191)">
            <mask id="r" fill="#fff">
                <use xlink:href="#q"/>
            </mask>
            <use fill="#F7FAFC" fill-rule="nonzero" xlink:href="#q"/>
            <g fill="#1E2C42" mask="url(#r)">
                <path d="M0 0h32v32H0z"/>
            </g>
        </g>
        <g transform="translate(387 117)">
            <mask id="t" fill="#fff">
                <use xlink:href="#s"/>
            </mask>
            <use fill="#F7FAFC" fill-rule="nonzero" xlink:href="#s"/>
            <g fill="#1E2C42" mask="url(#t)">
                <path d="M0 0h32v32H0z"/>
            </g>
        </g>
        <g transform="translate(389 222)">
            <mask id="v" fill="#fff">
                <use xlink:href="#u"/>
            </mask>
            <use fill="#C4CDD5" xlink:href="#u"/>
            <g fill="#1E2C42" mask="url(#v)">
                <path d="M0 0h32v32H0z"/>
            </g>
        </g>
    </g>
</svg>
