<svg xmlns="http://www.w3.org/2000/svg" xmlns:xlink="http://www.w3.org/1999/xlink" width="0" height="0" style="position:absolute">
	
		<symbol id="anchor" viewBox="0 0 24 24">
			<defs><path id="a" d="M18.118 15.765a.934.934 0 0 0-.275-.667l-2.04-2.04a.95.95 0 0 0-1.372.04c.324.324.706.598.706 1.098 0 .52-.421.941-.94.941-.5 0-.775-.382-1.099-.706a.95.95 0 0 0-.049 1.382l2.02 2.03a.941.941 0 0 0 .666.265c.245 0 .49-.088.667-.255l1.441-1.431a.928.928 0 0 0 .275-.657zm-6.893-6.912a.95.95 0 0 0-.274-.667l-2.02-2.03a.95.95 0 0 0-.666-.274.985.985 0 0 0-.667.265L6.157 7.578a.934.934 0 0 0 0 1.324l2.04 2.04a.941.941 0 0 0 .666.264c.284 0 .51-.098.706-.304-.324-.324-.706-.598-.706-1.098 0-.52.421-.941.94-.941.5 0 .775.382 1.099.706.206-.196.323-.422.323-.716zM20 15.765c0 .745-.304 1.47-.833 1.99l-1.442 1.431c-.529.53-1.245.814-1.99.814-.755 0-1.47-.294-2-.833l-2.02-2.03a2.803 2.803 0 0 1-.813-1.99c0-.774.314-1.51.863-2.049l-.863-.863a2.848 2.848 0 0 1-2.04.863c-.744 0-1.47-.294-2-.823l-2.038-2.04a2.794 2.794 0 0 1-.824-2c0-.745.304-1.47.833-1.99l1.442-1.431A2.803 2.803 0 0 1 8.265 4c.755 0 1.47.294 2 .833l2.02 2.03c.529.53.813 1.245.813 1.99a2.87 2.87 0 0 1-.863 2.049l.863.863a2.848 2.848 0 0 1 2.04-.863c.744 0 1.47.294 2 .823l2.038 2.04c.54.539.824 1.245.824 2z"></path></defs><use xlink:href="#a" fill-rule="evenodd"></use>
		</symbol>
	
		<symbol id="ar" viewBox="0 0 40 24">
			<defs><path id="a" d="M34.4 17.6c0 .44-.36.8-.8.8H6.4c-.442 0-.8-.36-.8-.8v-.8a1.6 1.6 0 0 0 1.6-1.6V8.8a1.6 1.6 0 0 0-1.6-1.6v-.8a.8.8 0 0 1 .8-.8h27.2c.44 0 .8.358.8.8v11.2zM33.6 4H6.4A2.403 2.403 0 0 0 4 6.4V17.6C4 18.923 5.077 20 6.4 20h27.2c1.323 0 2.4-1.077 2.4-2.4V6.4C36 5.077 34.923 4 33.6 4zm-13.933 8.184L16 9.669V14.4l3.667 2.2v-4.416zm.666 0V16.6L24 14.4V9.669l-3.667 2.515zm-3.746-2.936L20 7.2l3.413 2.048L20 11.588l-3.413-2.34z"></path></defs><use xlink:href="#a" fill-rule="evenodd"></use>
		</symbol>
	
		<symbol id="calendar" viewBox="0 0 24 24">
			<defs><path id="a" d="M5.643 18.857h2.571v-2.571H5.643v2.571zm3.143 0h2.857v-2.571H8.786v2.571zm-3.143-3.143h2.571v-2.857H5.643v2.857zm3.143 0h2.857v-2.857H8.786v2.857zm-3.143-3.428h2.571V9.714H5.643v2.572zm6.571 6.571h2.857v-2.571h-2.857v2.571zm-3.428-6.571h2.857V9.714H8.786v2.572zm6.857 6.571h2.571v-2.571h-2.571v2.571zm-3.429-3.143h2.857v-2.857h-2.857v2.857zM9.071 8V5.429a.294.294 0 0 0-.285-.286h-.572a.294.294 0 0 0-.285.286V8c0 .152.133.286.285.286h.572A.294.294 0 0 0 9.07 8zm6.572 7.714h2.571v-2.857h-2.571v2.857zm-3.429-3.428h2.857V9.714h-2.857v2.572zm3.429 0h2.571V9.714h-2.571v2.572zM15.929 8V5.429a.294.294 0 0 0-.286-.286h-.572a.294.294 0 0 0-.285.286V8c0 .152.134.286.285.286h.572A.294.294 0 0 0 15.929 8zm3.428-.571v11.428A1.15 1.15 0 0 1 18.214 20H5.643A1.15 1.15 0 0 1 4.5 18.857V7.43a1.15 1.15 0 0 1 1.143-1.143h1.143v-.857C6.786 4.643 7.429 4 8.214 4h.572c.785 0 1.428.643 1.428 1.429v.857h3.429v-.857c0-.786.643-1.429 1.428-1.429h.572c.786 0 1.428.643 1.428 1.429v.857h1.143a1.15 1.15 0 0 1 1.143 1.143z"></path></defs><use xlink:href="#a" fill-rule="evenodd"></use>
		</symbol>
	
		<symbol id="camera" viewBox="0 0 24 24">
			<defs><path id="a" d="M12 17.02c.73 0 1.404-.18 2.02-.54a3.995 3.995 0 0 0 1.46-1.46 3.936 3.936 0 0 0 .54-2.02c0-.73-.18-1.404-.54-2.02a3.995 3.995 0 0 0-1.46-1.46A3.936 3.936 0 0 0 12 8.98c-.73 0-1.404.18-2.02.54a3.995 3.995 0 0 0-1.46 1.46A3.936 3.936 0 0 0 7.98 13c0 .73.18 1.404.54 2.02a3.995 3.995 0 0 0 1.46 1.46 3.936 3.936 0 0 0 2.02.54zM9.596 5h4.808l1.461 1.577h2.558c.436 0 .808.16 1.115.48.308.321.462.7.462 1.135v9.616c0 .436-.154.814-.462 1.134-.307.32-.679.481-1.115.481H5.577a1.49 1.49 0 0 1-1.115-.48A1.584 1.584 0 0 1 4 17.807V8.192c0-.436.154-.814.462-1.134.307-.32.679-.481 1.115-.481h2.558L9.596 5zm-.154 8c0-.462.116-.888.346-1.279.231-.39.542-.702.933-.933.391-.23.817-.346 1.279-.346.462 0 .888.116 1.279.346.39.231.702.542.933.933.23.391.346.817.346 1.279 0 .462-.116.888-.346 1.279-.231.39-.542.702-.933.933-.391.23-.817.346-1.279.346-.462 0-.888-.116-1.279-.346a2.601 2.601 0 0 1-.933-.933A2.471 2.471 0 0 1 9.442 13z"></path></defs><use xlink:href="#a" fill-rule="evenodd"></use>
		</symbol>
	
		<symbol id="check" viewBox="0 0 24 24">
			<defs><path id="a" d="M9.64 15.84L18.46 7l1.18 1.18-10 10L5 13.54l1.16-1.18z"></path></defs><use xlink:href="#a" fill-rule="evenodd"></use>
		</symbol>
	
		<symbol id="clock" viewBox="0 0 24 24">
			<defs><path id="a" d="M12.423 7.98v4.212l3.596 2.135-.596 1.02-4.211-2.559V7.981h1.211zM12 18.424c1.154 0 2.23-.295 3.23-.885a6.228 6.228 0 0 0 2.308-2.307c.59-1 .885-2.077.885-3.231s-.295-2.23-.885-3.23a6.228 6.228 0 0 0-2.307-2.308c-1-.59-2.077-.885-3.231-.885s-2.23.295-3.23.885a6.228 6.228 0 0 0-2.308 2.307c-.59 1-.885 2.077-.885 3.231s.295 2.23.885 3.23a6.228 6.228 0 0 0 2.307 2.308c1 .59 2.077.885 3.231.885zM12 4c1.462 0 2.814.365 4.058 1.096a7.582 7.582 0 0 1 2.846 2.846A7.868 7.868 0 0 1 20 12a7.868 7.868 0 0 1-1.096 4.058 7.582 7.582 0 0 1-2.846 2.846A7.868 7.868 0 0 1 12 20a7.868 7.868 0 0 1-4.058-1.096 7.726 7.726 0 0 1-2.846-2.866A7.833 7.833 0 0 1 4 12c0-1.449.365-2.795 1.096-4.038a7.873 7.873 0 0 1 2.866-2.866A7.833 7.833 0 0 1 12 4z"></path></defs><use xlink:href="#a" fill-rule="evenodd"></use>
		</symbol>
	
		<symbol id="close" viewBox="0 0 24 24">
			<defs><path id="a" d="M18 7.216L13.216 12 18 16.784 16.784 18 12 13.216 7.216 18 6 16.784 10.784 12 6 7.216 7.216 6 12 10.784 16.784 6z"></path></defs><use xlink:href="#a" fill-rule="evenodd"></use>
		</symbol>
	
		<symbol id="codepen" viewBox="0 0 24 24">
			<defs><path id="a" d="M5.929 14.438l5.383 3.589V14.82l-2.982-1.99-2.401 1.607zm-.554-1.286L7.098 12l-1.723-1.152v2.304zm7.313 4.875l5.383-3.59-2.401-1.607-2.982 1.991v3.206zM12 13.625L14.429 12 12 10.375 9.571 12 12 13.625zM8.33 11.17l2.982-1.991V5.973L5.93 9.563 8.33 11.17zm8.572.83l1.723 1.152v-2.304L16.902 12zm-1.232-.83l2.401-1.607-5.384-3.59V9.18l2.983 1.99zM20 9.563v4.874a.699.699 0 0 1-.304.572l-7.312 4.875A.743.743 0 0 1 12 20a.743.743 0 0 1-.384-.116l-7.312-4.875A.699.699 0 0 1 4 14.437V9.564c0-.224.116-.447.304-.572l7.312-4.875A.743.743 0 0 1 12 4c.134 0 .268.045.384.116l7.312 4.875a.699.699 0 0 1 .304.572z"></path></defs><use xlink:href="#a" fill-rule="evenodd"></use>
		</symbol>
	
		<symbol id="copy" viewBox="0 0 24 24">
			<defs><path id="a" d="M17.322 18.536V8.357H9.357v10.179h7.965zm0-11.608c.396 0 .738.14 1.029.418.29.28.435.616.435 1.011v10.179c0 .395-.145.738-.435 1.028-.29.29-.633.436-1.029.436H9.357c-.395 0-.738-.145-1.028-.436a1.406 1.406 0 0 1-.436-1.028V8.357c0-.395.145-.732.436-1.01.29-.28.633-.419 1.028-.419h7.965zM15.144 4v1.464H6.429v10.179H5V5.464c0-.395.14-.738.418-1.028A1.35 1.35 0 0 1 6.43 4h8.715z"></path></defs><use xlink:href="#a" fill-rule="evenodd"></use>
		</symbol>
	
		<symbol id="css3" viewBox="0 0 24 24">
			<defs><path id="a" d="M5 5l1.25 14.136L11.883 21l5.63-1.864L18.764 5H5zm11.222 2.857l-.172 1.69-4.132 1.76-.011.004h3.996l-.459 5.235-3.52 1.025-3.54-1.042-.23-2.64h1.753l.115 1.368 1.885.475 1.96-.55.133-2.2-5.96-.018v-.003l-.008.003-.129-1.653 4.018-1.668.233-.097H7.75l-.208-1.689h8.681z"></path></defs><use fill-rule="nonzero" xlink:href="#a"></use>
		</symbol>
	
		<symbol id="down" viewBox="0 0 24 24">
			<defs><path id="a" d="M5.888 18L4 16.091 12 8l8 8.091L18.112 18 12 11.786z"></path></defs><use transform="matrix(1 0 0 -1 0 26)" xlink:href="#a" fill-rule="evenodd"></use>
		</symbol>
	
		<symbol id="dribbble" viewBox="0 0 24 24">
			<defs><path id="a" d="M14.667 18.292c-.104-.605-.5-2.688-1.459-5.188-.01 0-.03.01-.041.01 0 0-4.052 1.417-5.365 4.271-.062-.052-.156-.114-.156-.114A6.864 6.864 0 0 0 12 18.833a6.89 6.89 0 0 0 2.667-.541zm-1.927-6.323a19.41 19.41 0 0 0-.553-1.156c-3.52 1.052-6.895.968-7.01.968-.01.073-.01.146-.01.219 0 1.75.666 3.354 1.75 4.563 1.864-3.323 5.552-4.51 5.552-4.51.094-.032.187-.053.27-.084zM11.625 9.76a41.267 41.267 0 0 0-2.542-3.937 6.844 6.844 0 0 0-3.77 4.77c.177 0 3.03.032 6.312-.833zm7.125 3.323c-.146-.041-2.052-.646-4.26-.302a30.498 30.498 0 0 1 1.333 4.886 6.86 6.86 0 0 0 2.927-4.584zm-8.4-7.713a.027.027 0 0 1 .015-.005h-.01l-.005.005zm6.16 1.505a6.78 6.78 0 0 0-6.125-1.51 33.37 33.37 0 0 1 2.563 3.979c2.573-.959 3.542-2.438 3.562-2.469zm2.323 5.052a6.848 6.848 0 0 0-1.552-4.27c-.02.02-1.114 1.603-3.812 2.708.156.322.312.656.458.99.052.114.094.239.146.353 2.354-.302 4.677.209 4.76.22zM20 12c0 4.417-3.583 8-8 8s-8-3.583-8-8 3.583-8 8-8 8 3.583 8 8z"></path></defs><use xlink:href="#a" fill-rule="evenodd"></use>
		</symbol>
	
		<symbol id="facebook" viewBox="0 0 24 24">
			<defs><path id="a" d="M19.115 4c.49 0 .885.396.885.885v14.23c0 .49-.396.885-.885.885h-4.073v-6.198h2.073l.312-2.417h-2.385V9.844c0-.698.187-1.167 1.198-1.167l1.27-.01V6.51c-.218-.03-.979-.093-1.854-.093-1.844 0-3.114 1.125-3.114 3.187v1.781h-2.084v2.417h2.084V20H4.885A.885.885 0 0 1 4 19.115V4.885c0-.49.396-.885.885-.885h14.23z"></path></defs><use xlink:href="#a" fill-rule="evenodd"></use>
		</symbol>
	
		<symbol id="firefox" viewBox="0 0 24 24">
			<defs><path id="a" d="M12.062 20.508c-3.446 0-6.187-2.017-7.446-4.901C3.206 12.4 4.33 7.267 6.84 5l-.098 2.509c.125-.16 1.08-.206 1.232 0 .518-.991 2.188-1.732 3.527-1.759-.51.429-1.688 1.991-1.59 2.786.652.205 1.652.214 2.179.25.16.089.134.633-.187 1.08 0 0-.42.58-1.554.786l.134 1.687-1.241-.598c-.402 1.018.562 1.92 1.562 1.75 1.107-.188 1.5-.911 2.277-.866.768.044 1.071.473.973.875 0 0-.125.482-.955.401-.705 1.116-1.643 1.607-3.16 1.474 2.303 1.91 5.41.178 6.195-1.384.786-1.554.099-3.866-.687-4.518.929.402 1.571.812 1.91 1.714.18-2-.74-4.267-2.383-5.598 3.089.902 4.973 3.295 5.026 7.116.054 3.821-3.383 7.803-7.937 7.803z"></path></defs><use xlink:href="#a" fill-rule="evenodd"></use>
		</symbol>
	
		<symbol id="go" viewBox="0 0 24 24">
			<defs><path id="a" d="M12 4l8 8-8 8-1.413-1.413 5.581-5.605H4v-1.964h12.168l-5.581-5.605z"></path></defs><use xlink:href="#a" fill-rule="evenodd"></use>
		</symbol>
	
		<symbol id="gplus" viewBox="0 0 24 24">
			<defs><path id="a" d="M13.552 12.094c0-.26-.031-.469-.062-.667H9.719v1.375h2.26c-.083.583-.677 1.719-2.26 1.719-1.375 0-2.49-1.125-2.49-2.521s1.115-2.52 2.49-2.52c.77 0 1.291.322 1.594.614l1.083-1.052A3.863 3.863 0 0 0 9.719 8c-2.219 0-4 1.792-4 4s1.781 4 4 4c2.302 0 3.833-1.625 3.833-3.906zm3.594.479h1.135v-1.146h-1.135v-1.146H16v1.146h-1.146v1.146H16v1.146h1.146v-1.146zM20 7v10a3 3 0 0 1-3 3H7a3 3 0 0 1-3-3V7a3 3 0 0 1 3-3h10a3 3 0 0 1 3 3z"></path></defs><use xlink:href="#a" fill-rule="evenodd"></use>
		</symbol>
	
		<symbol id="hamburger" viewBox="0 0 24 24">
			<defs><path id="a" d="M4 7h16v2H4V7zm0 8h16v2H4v-2zm0-4h16v2H4v-2z"></path></defs><use xlink:href="#a" fill-rule="evenodd"></use>
		</symbol>
	
		<symbol id="html5" viewBox="0 0 24 24">
			<defs><path id="a" d="M5 5l1.25 14.136L11.865 21l5.649-1.864L18.763 5H5zm11.047 4.568H9.459l.147 1.764H15.9l-.488 5.3-3.509.964v.011h-.04l-3.537-.975-.215-2.707h1.71l.125 1.36 1.918.519 1.925-.518.215-2.222H8.022l-.46-5.2h8.642l-.157 1.704z"></path></defs><use fill-rule="nonzero" xlink:href="#a"></use>
		</symbol>
	
		<symbol id="info" viewBox="0 0 24 24">
			<defs><path id="a" d="M11.212 9.596V7.981h1.576v1.615h-1.576zM12 18.423c1.154 0 2.23-.295 3.23-.885a6.228 6.228 0 0 0 2.308-2.307c.59-1 .885-2.077.885-3.231s-.295-2.23-.885-3.23a6.228 6.228 0 0 0-2.307-2.308c-1-.59-2.077-.885-3.231-.885s-2.23.295-3.23.885a6.228 6.228 0 0 0-2.308 2.307c-.59 1-.885 2.077-.885 3.231s.295 2.23.885 3.23a6.228 6.228 0 0 0 2.307 2.308c1 .59 2.077.885 3.231.885zM12 4c1.462 0 2.814.365 4.058 1.096a7.582 7.582 0 0 1 2.846 2.846A7.868 7.868 0 0 1 20 12a7.868 7.868 0 0 1-1.096 4.058 7.582 7.582 0 0 1-2.846 2.846A7.868 7.868 0 0 1 12 20a7.868 7.868 0 0 1-4.058-1.096 7.726 7.726 0 0 1-2.846-2.866A7.833 7.833 0 0 1 4 12c0-1.449.365-2.795 1.096-4.038a7.873 7.873 0 0 1 2.866-2.866A7.833 7.833 0 0 1 12 4zm-.788 12.02v-4.808h1.576v4.807h-1.576z"></path></defs><use xlink:href="#a" fill-rule="evenodd"></use>
		</symbol>
	
		<symbol id="instagram" viewBox="0 0 24 24">
			<defs><path id="a" d="M14.666 12A2.672 2.672 0 0 0 12 9.334 2.672 2.672 0 0 0 9.334 12 2.672 2.672 0 0 0 12 14.666 2.672 2.672 0 0 0 14.666 12zm1.438 0A4.099 4.099 0 0 1 12 16.104 4.099 4.099 0 0 1 7.896 12 4.099 4.099 0 0 1 12 7.896 4.099 4.099 0 0 1 16.104 12zm1.125-4.27a.956.956 0 0 1-.959.958.956.956 0 0 1-.958-.958c0-.532.427-.959.958-.959.532 0 .959.427.959.959zM12 5.438c-1.167 0-3.666-.094-4.718.323a2.558 2.558 0 0 0-.917.604 2.558 2.558 0 0 0-.604.917c-.417 1.052-.323 3.551-.323 4.718 0 1.167-.094 3.666.323 4.718.146.365.323.636.604.917.281.281.552.458.917.604 1.052.417 3.551.323 4.718.323 1.167 0 3.666.094 4.718-.323.365-.146.636-.323.917-.604.281-.281.458-.552.604-.917.417-1.052.323-3.551.323-4.718 0-1.167.094-3.666-.323-4.718a2.558 2.558 0 0 0-.604-.917 2.558 2.558 0 0 0-.917-.604c-1.052-.417-3.551-.323-4.718-.323zM20 12c0 1.104.01 2.198-.053 3.302-.062 1.281-.354 2.416-1.291 3.354-.938.937-2.073 1.229-3.354 1.291C14.198 20.01 13.104 20 12 20s-2.198.01-3.302-.052c-1.281-.062-2.416-.354-3.354-1.291-.937-.938-1.229-2.073-1.291-3.354C3.99 14.198 4 13.104 4 12s-.01-2.198.052-3.302c.062-1.281.354-2.416 1.291-3.354.938-.937 2.073-1.229 3.354-1.291C9.802 3.99 10.896 4 12 4s2.198-.01 3.302.052c1.281.062 2.416.354 3.354 1.291.937.938 1.229 2.073 1.291 3.354C20.01 9.802 20 10.896 20 12z"></path></defs><use xlink:href="#a" fill-rule="evenodd"></use>
		</symbol>
	
		<symbol id="javascript" viewBox="0 0 24 24">
			<defs><path id="a" d="M4 4v16h16V4H4zm8.707 12.479c0 1.557-.914 2.267-2.246 2.267-1.204 0-1.9-.621-2.257-1.375l1.225-.739c.235.418.45.772.967.772.493 0 .808-.193.808-.947v-5.11h1.503v5.132zm3.557 2.267c-1.396 0-2.3-.664-2.739-1.535l1.225-.707c.321.525.743.914 1.482.914.622 0 1.022-.31 1.022-.743 0-.514-.408-.696-1.097-1l-.375-.16c-1.086-.461-1.803-1.044-1.803-2.269 0-1.128.86-1.985 2.2-1.985.957 0 1.642.332 2.135 1.203l-1.171.75c-.257-.46-.536-.643-.968-.643-.44 0-.718.279-.718.643 0 .45.279.632.925.915l.375.16c1.279.547 1.997 1.107 1.997 2.365 0 1.35-1.065 2.092-2.49 2.092z"></path></defs><use fill-rule="nonzero" xlink:href="#a"></use>
		</symbol>
	
		<symbol id="left" viewBox="0 0 24 24">
			<defs><path id="a" d="M15.888 5.888L9.744 12l6.144 6.112L14 20l-8-8 8-8z"></path></defs><use xlink:href="#a" fill-rule="evenodd"></use>
		</symbol>
	
		<symbol id="linkExternal" viewBox="0 0 24 24">
			<defs><path id="a" d="M16.571 13.286v2.857A2.572 2.572 0 0 1 14 18.714H6.571A2.572 2.572 0 0 1 4 16.143V8.714a2.572 2.572 0 0 1 2.571-2.571h6.286c.16 0 .286.125.286.286V7c0 .16-.125.286-.286.286H6.571c-.785 0-1.428.643-1.428 1.428v7.429c0 .786.643 1.428 1.428 1.428H14c.786 0 1.429-.642 1.429-1.428v-2.857c0-.161.125-.286.285-.286h.572c.16 0 .285.125.285.286zM20 5.57v4.572a.575.575 0 0 1-.571.571.568.568 0 0 1-.402-.17l-1.572-1.57-5.821 5.82a.308.308 0 0 1-.205.09.308.308 0 0 1-.206-.09l-1.018-1.017a.308.308 0 0 1-.089-.206c0-.071.036-.151.09-.205l5.82-5.821-1.57-1.572a.568.568 0 0 1-.17-.402c0-.312.259-.571.571-.571h4.572c.312 0 .571.259.571.571z"></path></defs><use xlink:href="#a" fill-rule="evenodd"></use>
		</symbol>
	
		<symbol id="linkedin" viewBox="0 0 24 24">
			<defs><path id="a" d="M7.635 8.969v10.323H4.198V8.969h3.437zm.22-3.188c.01.99-.74 1.782-1.938 1.782h-.021C4.74 7.563 4 6.77 4 5.78 4 4.771 4.77 4 5.938 4c1.177 0 1.906.77 1.916 1.781zm5.103 4.655c.453-.707 1.268-1.707 3.094-1.707 2.26 0 3.948 1.48 3.948 4.646v5.917h-3.427V13.77c0-1.386-.5-2.334-1.74-2.334-.948 0-1.51.636-1.76 1.25-.083.23-.115.532-.115.844v5.76H9.531c.042-9.354 0-10.322 0-10.322h3.427v1.467z"></path></defs><use xlink:href="#a" fill-rule="evenodd"></use>
		</symbol>
	
		<symbol id="mail" viewBox="0 0 24 24">
			<defs><path id="a" d="M12 11.635l6.423-4.02H5.577L12 11.635zm6.423 5.596v-8L12 13.21l-6.423-3.98v8h12.846zm0-11.231c.436 0 .808.16 1.115.48.308.321.462.7.462 1.135v9.616c0 .436-.154.814-.462 1.134-.307.32-.679.481-1.115.481H5.577a1.49 1.49 0 0 1-1.115-.48A1.584 1.584 0 0 1 4 17.23V7.615c0-.436.154-.814.462-1.134C4.769 6.16 5.14 6 5.577 6h12.846z"></path></defs><use xlink:href="#a" fill-rule="evenodd"></use>
		</symbol>
	
		<symbol id="right" viewBox="0 0 24 24">
			<defs><path id="a" d="M8 18.147l6.214-6.145L8 5.888 9.909 4 18 12.002l-8.091 8.001z"></path></defs><use xlink:href="#a" fill-rule="evenodd"></use>
		</symbol>
	
		<symbol id="sass" viewBox="0 0 24 24">
			<defs><path id="a" d="M18.774 12.923a3.27 3.27 0 0 0-1.45.339c-.147-.299-.3-.56-.324-.755-.03-.229-.063-.364-.028-.635s.193-.655.19-.683c-.002-.027-.035-.165-.357-.168-.323-.002-.6.063-.633.148a3.091 3.091 0 0 0-.132.48c-.057.293-.645 1.342-.977 1.889-.11-.213-.203-.402-.223-.552-.03-.229-.062-.364-.027-.635s.192-.655.19-.683c-.003-.027-.035-.165-.358-.168-.322-.002-.6.063-.632.148-.032.086-.067.286-.132.48-.065.193-.848 1.94-1.053 2.393-.105.231-.195.417-.26.542-.064.126-.005.008-.01.023a8.99 8.99 0 0 1-.087.168v.003c-.042.08-.09.153-.112.153-.015 0-.048-.211.007-.5.118-.607.395-1.55.392-1.583-.002-.018.053-.18-.182-.268-.227-.083-.31.055-.33.055-.02 0-.035.05-.035.05s.253-1.064-.485-1.064c-.46 0-1.1.507-1.414.966-.198.108-.625.341-1.075.59l-.517.286-.035-.038c-.895-.958-2.547-1.636-2.477-2.923.025-.47.187-1.701 3.176-3.197 2.45-1.224 4.41-.888 4.747-.14.484 1.066-1.048 3.051-3.592 3.337-.97.108-1.48-.268-1.607-.409-.132-.148-.152-.156-.202-.128-.083.045-.03.176 0 .253.075.199.387.55.92.726.467.153 1.604.238 2.978-.296 1.545-.598 2.747-2.261 2.395-3.654-.36-1.415-2.697-1.88-4.909-1.091-1.317.469-2.742 1.207-3.766 2.168-1.217 1.144-1.412 2.14-1.332 2.556.285 1.478 2.314 2.442 3.126 3.154l-.112.063c-.408.203-1.955 1.016-2.342 1.874-.437.974.072 1.672.407 1.767 1.045.29 2.115-.233 2.69-1.094.574-.86.504-1.985.24-2.497-.003-.007-.008-.012-.01-.02a36.236 36.236 0 0 1 .907-.522c-.1.271-.173.598-.21 1.07-.045.551.182 1.266.477 1.547.13.123.288.126.385.126.345 0 .5-.286.672-.627.213-.417.4-.901.4-.901s-.235 1.31.408 1.31c.235 0 .47-.304.574-.46v.003l.018-.03c.025-.038.037-.06.037-.06V15.8c.095-.163.303-.537.615-1.154.405-.798.793-1.794.793-1.794s.035.243.155.647c.07.239.217.5.334.753l-.152.206.002.005c-.075.1-.16.208-.247.313-.32.382-.7.818-.75.944-.06.148-.045.258.07.343.085.066.235.076.393.063.287-.02.49-.09.587-.135.155-.055.335-.143.505-.266.312-.231.502-.562.485-.999a2.085 2.085 0 0 0-.183-.707c.028-.04.058-.083.085-.126.495-.725.877-1.52.877-1.52s.035.243.155.647c.06.203.178.426.285.645-.465.379-.752.818-.852 1.106-.185.535-.04.776.232.83.123.026.298-.032.428-.087a1.98 1.98 0 0 0 .54-.279c.312-.23.615-.554.595-.993a1.873 1.873 0 0 0-.135-.587c.392-.166.902-.256 1.552-.18 1.392.162 1.664 1.035 1.612 1.4-.053.365-.345.566-.443.626-.097.06-.127.083-.12.128.013.066.058.063.14.048.115-.02.73-.296.758-.971.04-.853-.778-1.791-2.225-1.784zm-10.73 3.63c-.46.505-1.104.696-1.381.535-.298-.173-.18-.916.387-1.453.345-.326.79-.627 1.085-.813l.285-.173.03-.017c.022-.015.047-.028.072-.043.208.763.008 1.435-.477 1.965zm3.36-2.293c-.16.394-.498 1.398-.702 1.345-.175-.045-.283-.81-.035-1.563.125-.379.39-.83.547-1.006.252-.284.53-.374.595-.261.087.148-.305 1.24-.405 1.485zm2.774 1.33c-.067.035-.13.058-.16.04-.022-.012.028-.06.028-.06s.347-.374.484-.544c.08-.1.173-.219.273-.35l.002.041c-.002.45-.432.753-.627.873zm2.14-.489c-.05-.035-.043-.153.124-.52.065-.142.215-.383.475-.614a.91.91 0 0 1 .048.27c-.003.565-.405.776-.648.864z"></path></defs><use fill-rule="nonzero" xlink:href="#a"></use>
		</symbol>
	
		<symbol id="search" viewBox="0 0 24 24">
			<defs><path id="a" d="M15.077 10.77a4.313 4.313 0 0 0-4.308-4.308 4.313 4.313 0 0 0-4.307 4.307 4.313 4.313 0 0 0 4.307 4.308 4.313 4.313 0 0 0 4.308-4.308zm4.923 8A1.24 1.24 0 0 1 18.77 20c-.328 0-.645-.135-.866-.365l-3.298-3.289A6.767 6.767 0 0 1 4 10.77C4 7.03 7.029 4 10.77 4a6.767 6.767 0 0 1 5.576 10.606l3.298 3.298c.221.221.356.538.356.865z"></path></defs><use xlink:href="#a" fill-rule="evenodd"></use>
		</symbol>
	
		<symbol id="share" viewBox="0 0 24 24">
			<defs><path id="a" d="M16.048 15.296c.411 0 .797.106 1.157.318.36.213.646.498.858.858.212.36.318.746.318 1.157 0 .411-.106.8-.318 1.166a2.44 2.44 0 0 1-.858.877 2.19 2.19 0 0 1-1.157.328 2.19 2.19 0 0 1-1.156-.328 2.44 2.44 0 0 1-.858-.877 2.291 2.291 0 0 1-.318-1.166c0-.257.013-.43.038-.52l-5.687-3.316a2.37 2.37 0 0 1-1.657.636c-.424 0-.823-.11-1.196-.328a2.444 2.444 0 0 1-.886-.887A2.325 2.325 0 0 1 4 12.02c0-.424.11-.822.328-1.195.218-.373.514-.668.886-.887A2.325 2.325 0 0 1 6.41 9.61a2.37 2.37 0 0 1 1.657.636l5.649-3.277a3.237 3.237 0 0 1-.077-.56c0-.423.109-.822.327-1.195.219-.372.514-.668.887-.886A2.325 2.325 0 0 1 16.048 4c.424 0 .823.11 1.195.328.373.218.669.514.887.886.219.373.328.772.328 1.196 0 .424-.11.822-.328 1.195a2.444 2.444 0 0 1-.887.887 2.325 2.325 0 0 1-1.195.327c-.591 0-1.144-.225-1.658-.674L8.742 11.46c.052.232.077.411.077.54 0 .129-.025.321-.077.578l5.725 3.316c.463-.398.99-.598 1.581-.598z"></path></defs><use xlink:href="#a" fill-rule="evenodd"></use>
		</symbol>
	
		<symbol id="tags" viewBox="0 0 24 24">
			<defs><path id="a" d="M7.775 8.696c0-.598-.48-1.078-1.079-1.078-.598 0-1.078.48-1.078 1.078 0 .598.48 1.079 1.078 1.079.598 0 1.079-.48 1.079-1.079zm8.99 4.853c0 .287-.118.565-.312.759l-4.137 4.145a1.085 1.085 0 0 1-1.525 0L4.767 12.42C4.337 12 4 11.182 4 10.583V7.078C4 6.488 4.489 6 5.078 6h3.505c.599 0 1.416.337 1.846.767l6.024 6.016c.194.202.312.48.312.766zm3.235 0c0 .287-.118.565-.312.759l-4.137 4.145a1.12 1.12 0 0 1-.766.312c-.439 0-.658-.203-.944-.497l3.96-3.96a1.085 1.085 0 0 0 0-1.525l-6.024-6.016C11.347 6.337 10.53 6 9.932 6h1.887c.598 0 1.415.337 1.845.767l6.024 6.016c.194.202.312.48.312.766z"></path></defs><use xlink:href="#a" fill-rule="evenodd"></use>
		</symbol>
	
		<symbol id="toc" viewBox="0 0 24 24">
			<defs><path id="a" d="M3.875 11a.6.6 0 0 1 .44.186.6.6 0 0 1 .185.439v1.25a.6.6 0 0 1-.186.44.6.6 0 0 1-.439.185h-1.25a.6.6 0 0 1-.44-.186.6.6 0 0 1-.185-.439v-1.25a.6.6 0 0 1 .186-.44.6.6 0 0 1 .439-.185h1.25zm17.5.625a.6.6 0 0 1 .44.186.6.6 0 0 1 .185.439.6.6 0 0 1-.186.44.6.6 0 0 1-.439.185H8.25a.6.6 0 0 1-.44-.186.6.6 0 0 1-.185-.439.6.6 0 0 1 .186-.44.6.6 0 0 1 .439-.185h13.125zM3.875 16a.6.6 0 0 1 .44.186.6.6 0 0 1 .185.439v1.25a.6.6 0 0 1-.186.44.6.6 0 0 1-.439.185h-1.25a.6.6 0 0 1-.44-.186.6.6 0 0 1-.185-.439v-1.25a.6.6 0 0 1 .186-.44.6.6 0 0 1 .439-.185h1.25zm17.5.625a.6.6 0 0 1 .44.186.6.6 0 0 1 .185.439.6.6 0 0 1-.186.44.6.6 0 0 1-.439.185H8.25a.6.6 0 0 1-.44-.186.6.6 0 0 1-.185-.439.6.6 0 0 1 .186-.44.6.6 0 0 1 .439-.185h13.125zM3.875 6a.6.6 0 0 1 .44.186.6.6 0 0 1 .185.439v1.25a.6.6 0 0 1-.186.44.6.6 0 0 1-.439.185h-1.25a.6.6 0 0 1-.44-.186A.6.6 0 0 1 2 7.875v-1.25a.6.6 0 0 1 .186-.44A.6.6 0 0 1 2.625 6h1.25zM8.25 7.875a.6.6 0 0 1-.44-.186.6.6 0 0 1-.185-.439.6.6 0 0 1 .186-.44.6.6 0 0 1 .439-.185h13.125a.6.6 0 0 1 .44.186.6.6 0 0 1 .185.439.6.6 0 0 1-.186.44.6.6 0 0 1-.439.185H8.25z"></path></defs><use xlink:href="#a" fill-rule="evenodd"></use>
		</symbol>
	
		<symbol id="twitter" viewBox="0 0 24 24">
			<defs><path id="a" d="M20 7.543a7.05 7.05 0 0 1-1.645 1.696c.01.142.01.284.01.426 0 4.335-3.299 9.33-9.33 9.33A9.266 9.266 0 0 1 4 17.523c.264.03.518.04.792.04a6.567 6.567 0 0 0 4.07-1.4 3.285 3.285 0 0 1-3.065-2.275c.203.03.406.051.62.051.294 0 .588-.04.862-.112a3.28 3.28 0 0 1-2.63-3.218v-.04c.437.243.945.395 1.483.416A3.277 3.277 0 0 1 4.67 8.254c0-.61.162-1.168.447-1.655a9.32 9.32 0 0 0 6.761 3.431 3.701 3.701 0 0 1-.081-.75A3.278 3.278 0 0 1 15.077 6c.943 0 1.796.396 2.395 1.036a6.456 6.456 0 0 0 2.081-.792 3.27 3.27 0 0 1-1.441 1.807c.66-.071 1.3-.254 1.888-.508z"></path></defs><use xlink:href="#a" fill-rule="evenodd"></use>
		</symbol>
	
		<symbol id="up" viewBox="0 0 24 24">
			<defs><path id="a" d="M5.888 16L4 14.091 12 6l8 8.091L18.112 16 12 9.786z"></path></defs><use xlink:href="#a" fill-rule="evenodd"></use>
		</symbol>
	
		<symbol id="warn" viewBox="0 0 24 24">
			<defs><path id="a" d="M12.82 13.68v-3.36h-1.64v3.36h1.64zm0 3.32v-1.68h-1.64V17h1.64zm-10 2.5L12 3.68l9.18 15.82H2.82z"></path></defs><use xlink:href="#a" fill-rule="evenodd"></use>
		</symbol>
	
</svg>
