<svg xmlns="http://www.w3.org/2000/svg" xmlns:xlink="http://www.w3.org/1999/xlink" width="40" height="24" viewBox="0 0 40 24">
  <defs>
    <path id="a" d="M34.4,17.6 C34.4,18.04 34.04,18.4 33.6,18.4 L6.4,18.4 C5.9584,18.4 5.6,18.04 5.6,17.6 L5.6,16.8 C6.4832,16.8 7.2,16.0848 7.2,15.2 L7.2,8.8 C7.2,7.9168 6.4832,7.2 5.6,7.2 L5.6,6.4 C5.6,5.9584 5.9584,5.6 6.4,5.6 L33.6,5.6 C34.04,5.6 34.4,5.9584 34.4,6.4 L34.4,17.6 Z M33.6,4 L6.4,4 C5.0768,4 4,5.0768 4,6.4 L4,8.8 L4,15.2 L4,17.6 C4,18.9232 5.0768,20 6.4,20 L33.6,20 C34.9232,20 36,18.9232 36,17.6 L36,6.4 C36,5.0768 34.9232,4 33.6,4 Z M19.6672,12.184 L16,9.6688 L16,14.4 L19.6672,16.6 L19.6672,12.184 Z M20.3328,12.184 L20.3328,16.6 L24,14.4 L24,9.6688 L20.3328,12.184 Z M16.5872,9.248 L20,7.2 L23.4128,9.248 L20,11.5888 L16.5872,9.248 Z"/>
  </defs>
  <g fill-rule="evenodd">
    <use xlink:href="#a"/>
  </g>
</svg>
