<svg xmlns="http://www.w3.org/2000/svg" width="24" height="24" viewBox="0 0 24 24">
  <path fill="#3A4554" d="M6.77777778,9.68888889 L17.8,9.68888889 L17.8,8.08888889 C17.8,7.59796911 17.4020309,7.2 16.9111111,7.2 L16.0222222,7.2 L16.0222222,7.73333333 C16.0222222,8.22425311 15.6242531,8.62222222 15.1333333,8.62222222 C14.6424136,8.62222222 14.2444444,8.22425311 14.2444444,7.73333333 L14.2444444,7.2 L10.3333333,7.2 L10.3333333,7.73333333 C10.3333333,8.22425311 9.93536422,8.62222222 9.44444444,8.62222222 C8.95352467,8.62222222 8.55555556,8.22425311 8.55555556,7.73333333 L8.55555556,7.2 L7.66666667,7.2 C7.17574689,7.2 6.77777778,7.59796911 6.77777778,8.08888889 L6.77777778,9.68888889 Z M6.77777778,11.4666667 L6.77777778,17.3333333 C6.77777778,17.8242531 7.17574689,18.2222222 7.66666667,18.2222222 L16.9111111,18.2222222 C17.4020309,18.2222222 17.8,17.8242531 17.8,17.3333333 L17.8,11.4666667 L6.77777778,11.4666667 Z M10.3333333,5.42222222 L14.2444444,5.42222222 L14.2444444,4.88888889 C14.2444444,4.39796911 14.6424136,4 15.1333333,4 C15.6242531,4 16.0222222,4.39796911 16.0222222,4.88888889 L16.0222222,5.42222222 L16.9111111,5.42222222 C18.3838704,5.42222222 19.5777778,6.61612956 19.5777778,8.08888889 L19.5777778,17.3333333 C19.5777778,18.8060927 18.3838704,20 16.9111111,20 L7.66666667,20 C6.19390733,20 5,18.8060927 5,17.3333333 L5,8.08888889 C5,6.61612956 6.19390733,5.42222222 7.66666667,5.42222222 L8.55555556,5.42222222 L8.55555556,4.88888889 C8.55555556,4.39796911 8.95352467,4 9.44444444,4 C9.93536422,4 10.3333333,4.39796911 10.3333333,4.88888889 L10.3333333,5.42222222 Z"/>
</svg>
