<svg xmlns="http://www.w3.org/2000/svg" xmlns:xlink="http://www.w3.org/1999/xlink" width="24" height="24" viewBox="0 0 24 24">
  <defs>
    <path id="a" d="M5.64285714,18.8571429 L8.21428571,18.8571429 L8.21428571,16.2857143 L5.64285714,16.2857143 L5.64285714,18.8571429 Z M8.78571429,18.8571429 L11.6428571,18.8571429 L11.6428571,16.2857143 L8.78571429,16.2857143 L8.78571429,18.8571429 Z M5.64285714,15.7142857 L8.21428571,15.7142857 L8.21428571,12.8571429 L5.64285714,12.8571429 L5.64285714,15.7142857 Z M8.78571429,15.7142857 L11.6428571,15.7142857 L11.6428571,12.8571429 L8.78571429,12.8571429 L8.78571429,15.7142857 Z M5.64285714,12.2857143 L8.21428571,12.2857143 L8.21428571,9.71428571 L5.64285714,9.71428571 L5.64285714,12.2857143 Z M12.2142857,18.8571429 L15.0714286,18.8571429 L15.0714286,16.2857143 L12.2142857,16.2857143 L12.2142857,18.8571429 Z M8.78571429,12.2857143 L11.6428571,12.2857143 L11.6428571,9.71428571 L8.78571429,9.71428571 L8.78571429,12.2857143 Z M15.6428571,18.8571429 L18.2142857,18.8571429 L18.2142857,16.2857143 L15.6428571,16.2857143 L15.6428571,18.8571429 Z M12.2142857,15.7142857 L15.0714286,15.7142857 L15.0714286,12.8571429 L12.2142857,12.8571429 L12.2142857,15.7142857 Z M9.07142857,8 L9.07142857,5.42857143 C9.07142857,5.27678571 8.9375,5.14285714 8.78571429,5.14285714 L8.21428571,5.14285714 C8.0625,5.14285714 7.92857143,5.27678571 7.92857143,5.42857143 L7.92857143,8 C7.92857143,8.15178571 8.0625,8.28571429 8.21428571,8.28571429 L8.78571429,8.28571429 C8.9375,8.28571429 9.07142857,8.15178571 9.07142857,8 Z M15.6428571,15.7142857 L18.2142857,15.7142857 L18.2142857,12.8571429 L15.6428571,12.8571429 L15.6428571,15.7142857 Z M12.2142857,12.2857143 L15.0714286,12.2857143 L15.0714286,9.71428571 L12.2142857,9.71428571 L12.2142857,12.2857143 Z M15.6428571,12.2857143 L18.2142857,12.2857143 L18.2142857,9.71428571 L15.6428571,9.71428571 L15.6428571,12.2857143 Z M15.9285714,8 L15.9285714,5.42857143 C15.9285714,5.27678571 15.7946429,5.14285714 15.6428571,5.14285714 L15.0714286,5.14285714 C14.9196429,5.14285714 14.7857143,5.27678571 14.7857143,5.42857143 L14.7857143,8 C14.7857143,8.15178571 14.9196429,8.28571429 15.0714286,8.28571429 L15.6428571,8.28571429 C15.7946429,8.28571429 15.9285714,8.15178571 15.9285714,8 Z M19.3571429,7.42857143 L19.3571429,18.8571429 C19.3571429,19.4821429 18.8392857,20 18.2142857,20 L5.64285714,20 C5.01785714,20 4.5,19.4821429 4.5,18.8571429 L4.5,7.42857143 C4.5,6.80357143 5.01785714,6.28571429 5.64285714,6.28571429 L6.78571429,6.28571429 L6.78571429,5.42857143 C6.78571429,4.64285714 7.42857143,4 8.21428571,4 L8.78571429,4 C9.57142857,4 10.2142857,4.64285714 10.2142857,5.42857143 L10.2142857,6.28571429 L13.6428571,6.28571429 L13.6428571,5.42857143 C13.6428571,4.64285714 14.2857143,4 15.0714286,4 L15.6428571,4 C16.4285714,4 17.0714286,4.64285714 17.0714286,5.42857143 L17.0714286,6.28571429 L18.2142857,6.28571429 C18.8392857,6.28571429 19.3571429,6.80357143 19.3571429,7.42857143 Z"/>
  </defs>
  <g fill-rule="evenodd">
    <use xlink:href="#a"/>
  </g>
</svg>
