<svg xmlns="http://www.w3.org/2000/svg" width="24" height="24" viewBox="0 0 24 24">
  <path fill-rule="evenodd" d="M16.6666667,12.6666667 L16.6666667,16.6666667 L12.6666667,16.6666667 L12.6666667,12.6666667 L16.6666667,12.6666667 Z M15.3333333,4 L17.3333333,4 L17.3333333,5.33333333 L18.3333333,5.33333333 C18.77778,5.33333333 19.166665,5.49999833 19.5,5.83333333 C19.833335,6.16666833 20,6.55555333 20,7 L20,18.3333333 C20,18.77778 19.833335,19.166665 19.5,19.5 C19.166665,19.833335 18.77778,20 18.3333333,20 L5.66666667,20 C5.22222,20 4.833335,19.833335 4.5,19.5 C4.166665,19.166665 4,18.77778 4,18.3333333 L4,7 C4,6.55555333 4.166665,6.16666833 4.5,5.83333333 C4.833335,5.49999833 5.22222,5.33333333 5.66666667,5.33333333 L6.66666667,5.33333333 L6.66666667,4 L8.66666667,4 L8.66666667,5.33333333 L15.3333333,5.33333333 L15.3333333,4 Z M18.3333333,18.3333333 L18.3333333,9.5 L5.66666667,9.5 L5.66666667,18.3333333 L18.3333333,18.3333333 Z"/>
</svg>
