<svg xmlns="http://www.w3.org/2000/svg" width="24" height="24" viewBox="0 0 24 24">
  <path fill="#5A616B" fill-rule="evenodd" d="M6,9.4 L18.4,9.4 L18.4,7.6 C18.4,7.04771525 17.9522847,6.6 17.4,6.6 L16.4,6.6 L16.4,7.2 C16.4,7.75228475 15.9522847,8.2 15.4,8.2 C14.8477153,8.2 14.4,7.75228475 14.4,7.2 L14.4,6.6 L10,6.6 L10,7.2 C10,7.75228475 9.55228475,8.2 9,8.2 C8.44771525,8.2 8,7.75228475 8,7.2 L8,6.6 L7,6.6 C6.44771525,6.6 6,7.04771525 6,7.6 L6,9.4 Z M6,11.4 L6,18 C6,18.5522847 6.44771525,19 7,19 L17.4,19 C17.9522847,19 18.4,18.5522847 18.4,18 L18.4,11.4 L6,11.4 Z M10,4.6 L14.4,4.6 L14.4,4 C14.4,3.44771525 14.8477153,3 15.4,3 C15.9522847,3 16.4,3.44771525 16.4,4 L16.4,4.6 L17.4,4.6 C19.0568542,4.6 20.4,5.94314575 20.4,7.6 L20.4,18 C20.4,19.6568542 19.0568542,21 17.4,21 L7,21 C5.34314575,21 4,19.6568542 4,18 L4,7.6 C4,5.94314575 5.34314575,4.6 7,4.6 L8,4.6 L8,4 C8,3.44771525 8.44771525,3 9,3 C9.55228475,3 10,3.44771525 10,4 L10,4.6 Z"/>
</svg>
