<svg xmlns="http://www.w3.org/2000/svg" width="24" height="24" viewBox="0 0 24 24">
  <path fill="#5A616B" fill-rule="evenodd" d="M12,22 C6.4771525,22 2,17.5228475 2,12 C2,6.4771525 6.4771525,2 12,2 C17.5228475,2 22,6.4771525 22,12 C22,17.5228475 17.5228475,22 12,22 Z M12,20.1818182 C16.5186934,20.1818182 20.1818182,16.5186934 20.1818182,12 C20.1818182,7.48130659 16.5186934,3.81818182 12,3.81818182 C7.48130659,3.81818182 3.81818182,7.48130659 3.81818182,12 C3.81818182,16.5186934 7.48130659,20.1818182 12,20.1818182 Z M16.0429215,13.0050662 C16.4919928,13.2296019 16.6740149,13.7756683 16.4494793,14.2247396 C16.2249436,14.673811 15.6788772,14.8558331 15.2298058,14.6312974 L11.5934422,12.8131156 C11.2854567,12.6591229 11.0909091,12.3443382 11.0909091,12 L11.0909091,6.54545455 C11.0909091,6.0433775 11.497923,5.63636364 12,5.63636364 C12.502077,5.63636364 12.9090909,6.0433775 12.9090909,6.54545455 L12.9090909,11.4381509 L16.0429215,13.0050662 Z"/>
</svg>
