<svg xmlns="http://www.w3.org/2000/svg" width="24" height="24" viewBox="0 0 24 24">
  <path fill="#3A4554" fill-rule="evenodd" d="M12,20 C7.581722,20 4,16.418278 4,12 C4,7.581722 7.581722,4 12,4 C16.418278,4 20,7.581722 20,12 C20,16.418278 16.418278,20 12,20 Z M12,18.5454545 C15.6149547,18.5454545 18.5454545,15.6149547 18.5454545,12 C18.5454545,8.38504527 15.6149547,5.45454545 12,5.45454545 C8.38504527,5.45454545 5.45454545,8.38504527 5.45454545,12 C5.45454545,15.6149547 8.38504527,18.5454545 12,18.5454545 Z M15.2343372,12.804053 C15.5935942,12.9836815 15.739212,13.4205346 15.5595834,13.7797917 C15.3799549,14.1390488 14.9431017,14.2846665 14.5838447,14.105038 L11.6747537,12.6504925 C11.4283654,12.5272983 11.2727273,12.2754706 11.2727273,12 L11.2727273,7.63636364 C11.2727273,7.234702 11.5983384,6.90909091 12,6.90909091 C12.4016616,6.90909091 12.7272727,7.234702 12.7272727,7.63636364 L12.7272727,11.5505207 L15.2343372,12.804053 Z"/>
</svg>
