<svg xmlns="http://www.w3.org/2000/svg" width="24" height="24" viewBox="0 0 24 24">
  <path fill-rule="evenodd" d="M15.375,9.1875 C15.375,9.34375078 15.3177089,9.47395781 15.203125,9.578125 L12.796875,12 L15.203125,14.421875 C15.3177089,14.5364589 15.375,14.6692701 15.375,14.8203125 C15.375,14.9713549 15.320313,15.101562 15.2109375,15.2109375 C15.101562,15.320313 14.9687508,15.375 14.8125,15.375 C14.6562492,15.375 14.5208339,15.3229172 14.40625,15.21875 L12,12.796875 L9.59375,15.21875 C9.47916609,15.3229172 9.34375078,15.375 9.1875,15.375 C9.03124922,15.375 8.89843805,15.320313 8.7890625,15.2109375 C8.67968695,15.101562 8.625,14.9687508 8.625,14.8125 C8.625,14.6562492 8.68229109,14.5260422 8.796875,14.421875 L11.203125,12 L8.796875,9.578125 C8.68229109,9.47395781 8.625,9.34375078 8.625,9.1875 C8.625,9.03124922 8.67968695,8.89843805 8.7890625,8.7890625 C8.89843805,8.67968695 9.03124922,8.625 9.1875,8.625 C9.34375078,8.625 9.47916609,8.67708281 9.59375,8.78125 L12,11.203125 L14.40625,8.78125 C14.5208339,8.67708281 14.6562492,8.625 14.8125,8.625 C14.9687508,8.625 15.101562,8.67968695 15.2109375,8.7890625 C15.320313,8.89843805 15.375,9.03124922 15.375,9.1875 Z M16.015625,5.078125 C17.2447978,5.78646188 18.2161423,6.75520219 18.9296875,7.984375 C19.6432327,9.21354781 20,10.5520761 20,12 C20,13.4479239 19.6432327,14.7864522 18.9296875,16.015625 C18.2161423,17.2447978 17.2447978,18.2161423 16.015625,18.9296875 C14.7864522,19.6432327 13.4479239,20 12,20 C10.5520761,20 9.21354781,19.6432327 7.984375,18.9296875 C6.75520219,18.2161423 5.78385773,17.2447978 5.0703125,16.015625 C4.35676727,14.7864522 4,13.4479239 4,12 C4,10.5520761 4.35676727,9.21354781 5.0703125,7.984375 C5.78385773,6.75520219 6.75520219,5.78385773 7.984375,5.0703125 C9.21354781,4.35676727 10.5520761,4 12,4 C13.4479239,4 14.7864522,4.35937141 16.015625,5.078125 Z M16.859375,16.859375 C17.4947948,16.2239552 17.9895816,15.4947958 18.34375,14.671875 C18.6979184,13.8281208 18.875,12.9375047 18.875,12 C18.875,11.0624953 18.6927102,10.1718792 18.328125,9.328125 C17.9843733,8.50520422 17.4947948,7.77604484 16.859375,7.140625 C16.2239552,6.50520516 15.4947958,6.01041844 14.671875,5.65625 C13.8281208,5.30208156 12.9375047,5.125 12,5.125 C11.0624953,5.125 10.1718792,5.30728984 9.328125,5.671875 C8.50520422,6.01562672 7.77604484,6.50520516 7.140625,7.140625 C6.50520516,7.77604484 6.01041844,8.50520422 5.65625,9.328125 C5.30208156,10.1718792 5.125,11.0624953 5.125,12 C5.125,12.9375047 5.30728984,13.8281208 5.671875,14.671875 C6.01562672,15.4947958 6.50520516,16.2239552 7.140625,16.859375 C7.77604484,17.4947948 8.50520422,17.9895816 9.328125,18.34375 C10.1718792,18.6979184 11.0624953,18.875 12,18.875 C12.9375047,18.875 13.8281208,18.6927102 14.671875,18.328125 C15.4947958,17.9843733 16.2239552,17.4947948 16.859375,16.859375 Z"/>
</svg>
