<svg xmlns="http://www.w3.org/2000/svg" width="24" height="24" viewBox="0 0 24 24">
  <path fill="#5A616B" fill-rule="evenodd" d="M13.8182746,12 L20.623423,18.8051484 C21.1255257,19.3072511 21.1255257,20.1213203 20.623423,20.623423 C20.1213203,21.1255257 19.3072511,21.1255257 18.8051484,20.623423 L12,13.8182746 L5.19485158,20.623423 C4.69274891,21.1255257 3.87867966,21.1255257 3.376577,20.623423 C2.87447433,20.1213203 2.87447433,19.3072511 3.376577,18.8051484 L10.1817254,12 L3.376577,5.19485158 C2.87447433,4.69274891 2.87447433,3.87867966 3.376577,3.376577 C3.87867966,2.87447433 4.69274891,2.87447433 5.19485158,3.376577 L12,10.1817254 L18.8051484,3.376577 C19.3072511,2.87447433 20.1213203,2.87447433 20.623423,3.376577 C21.1255257,3.87867966 21.1255257,4.69274891 20.623423,5.19485158 L13.8182746,12 Z"/>
</svg>
