<svg xmlns="http://www.w3.org/2000/svg" xmlns:xlink="http://www.w3.org/1999/xlink" width="24" height="24" viewBox="0 0 24 24">
  <defs>
    <path id="a" d="M17.3224401,18.5359477 L17.3224401,8.35729847 L9.35729847,8.35729847 L9.35729847,18.5359477 L17.3224401,18.5359477 Z M17.3224401,6.92810458 C17.7175038,6.92810458 18.0602745,7.06753673 18.3507625,7.34640523 C18.6412505,7.62527373 18.7864924,7.96223477 18.7864924,8.35729847 L18.7864924,18.5359477 C18.7864924,18.9310114 18.6412505,19.2737821 18.3507625,19.5642702 C18.0602745,19.8547582 17.7175038,20 17.3224401,20 L9.35729847,20 C8.96223477,20 8.61946405,19.8547582 8.32897603,19.5642702 C8.03848802,19.2737821 7.89324619,18.9310114 7.89324619,18.5359477 L7.89324619,8.35729847 C7.89324619,7.96223477 8.03848802,7.62527373 8.32897603,7.34640523 C8.61946405,7.06753673 8.96223477,6.92810458 9.35729847,6.92810458 L17.3224401,6.92810458 Z M15.1437908,4 L15.1437908,5.46405229 L6.4291939,5.46405229 L6.4291939,15.6427015 L5,15.6427015 L5,5.46405229 C5,5.06898858 5.13943216,4.72621786 5.41830065,4.43572985 C5.69716915,4.14524183 6.0341302,4 6.4291939,4 L15.1437908,4 Z"/>
  </defs>
  <use fill-rule="evenodd" xlink:href="#a"/>
</svg>
