<svg xmlns="http://www.w3.org/2000/svg" xmlns:xlink="http://www.w3.org/1999/xlink" width="24" height="24" viewBox="0 0 24 24">
  <defs>
    <path id="a" d="M18.4030501,20.1699346 L18.4030501,7.44662309 L8.44662309,7.44662309 L8.44662309,20.1699346 L18.4030501,20.1699346 Z M18.4030501,5.66013072 C18.8968797,5.66013072 19.3253431,5.83442092 19.6884532,6.18300654 C20.0515632,6.53159216 20.2331155,6.95279346 20.2331155,7.44662309 L20.2331155,20.1699346 C20.2331155,20.6637643 20.0515632,21.0922277 19.6884532,21.4553377 C19.3253431,21.8184477 18.8968797,22 18.4030501,22 L8.44662309,22 C7.95279346,22 7.52433007,21.8184477 7.16122004,21.4553377 C6.79811002,21.0922277 6.61655773,20.6637643 6.61655773,20.1699346 L6.61655773,7.44662309 C6.61655773,6.95279346 6.79811002,6.53159216 7.16122004,6.18300654 C7.52433007,5.83442092 7.95279346,5.66013072 8.44662309,5.66013072 L18.4030501,5.66013072 Z M15.6797386,2 L15.6797386,3.83006536 L4.78649237,3.83006536 L4.78649237,16.5533769 L3,16.5533769 L3,3.83006536 C3,3.33623573 3.1742902,2.90777233 3.52287582,2.54466231 C3.87146144,2.18155229 4.29266275,2 4.78649237,2 L15.6797386,2 Z"/>
  </defs>
  <use fill="#5A616B" fill-rule="evenodd" xlink:href="#a"/>
</svg>
