<svg xmlns="http://www.w3.org/2000/svg" xmlns:xlink="http://www.w3.org/1999/xlink" width="24" height="24" viewBox="0 0 24 24">
  <defs>
    <path id="a" d="M5,5 L6.25089606,19.1357143 L11.8817204,21 L17.5125448,19.1357143 L18.7634409,5 L5,5 Z M16.2222222,7.85714286 L16.0501792,9.54642857 L11.9175627,11.3071429 L11.90681,11.3107143 L15.9032258,11.3107143 L15.4444444,16.5464286 L11.9247312,17.5714286 L8.38351254,16.5285714 L8.15412186,13.8892857 L9.90681004,13.8892857 L10.0215054,15.2571429 L11.90681,15.7321429 L13.8673835,15.1821429 L14,12.9821429 L8.03942652,12.9642857 L8.03942652,12.9607143 L8.03225806,12.9642857 L7.90322581,11.3107143 L11.921147,9.64285714 L12.1541219,9.54642857 L7.74910394,9.54642857 L7.54121864,7.85714286 L16.2222222,7.85714286 Z"/>
  </defs>
  <g fill-rule="evenodd">
    <use fill-rule="nonzero" xlink:href="#a"/>
  </g>
</svg>
