<svg xmlns="http://www.w3.org/2000/svg" xmlns:xlink="http://www.w3.org/1999/xlink" width="24" height="24" viewBox="0 0 24 24">
  <defs>
    <path id="a" d="M14.6666667,18.2916667 C14.5625,17.6875 14.1666667,15.6041667 13.2083333,13.1041667 C13.1979167,13.1041667 13.1770833,13.1145833 13.1666667,13.1145833 C13.1666667,13.1145833 9.11458333,14.53125 7.80208333,17.3854167 C7.73958333,17.3333333 7.64583333,17.2708333 7.64583333,17.2708333 C8.83333333,18.2395833 10.34375,18.8333333 12,18.8333333 C12.9479167,18.8333333 13.84375,18.6354167 14.6666667,18.2916667 Z M12.7395833,11.96875 C12.5729167,11.5833333 12.3854167,11.1979167 12.1875,10.8125 C8.66666667,11.8645833 5.29166667,11.78125 5.17708333,11.78125 C5.16666667,11.8541667 5.16666667,11.9270833 5.16666667,12 C5.16666667,13.75 5.83333333,15.3541667 6.91666667,16.5625 C8.78125,13.2395833 12.46875,12.0520833 12.46875,12.0520833 C12.5625,12.0208333 12.65625,12 12.7395833,11.96875 Z M11.625,9.76041667 C10.4375,7.65625 9.17708333,5.94791667 9.08333333,5.82291667 C7.17708333,6.71875 5.76041667,8.47916667 5.3125,10.59375 C5.48958333,10.59375 8.34375,10.625 11.625,9.76041667 Z M18.75,13.0833333 C18.6041667,13.0416667 16.6979167,12.4375 14.4895833,12.78125 C15.3854167,15.25 15.75,17.2604167 15.8229167,17.6666667 C17.3541667,16.6354167 18.4375,14.9895833 18.75,13.0833333 Z M10.3502604,5.36979167 C10.3541667,5.3671875 10.359375,5.36458333 10.3645833,5.36458333 C10.359375,5.36458333 10.3567708,5.36458333 10.3541667,5.36588542 L10.3502604,5.36979167 Z M16.5104167,6.875 C15.3125,5.8125 13.7291667,5.16666667 12,5.16666667 C11.4479167,5.16666667 10.90625,5.23958333 10.3854167,5.36458333 C10.4895833,5.5 11.78125,7.19791667 12.9479167,9.34375 C15.5208333,8.38541667 16.4895833,6.90625 16.5104167,6.875 Z M18.8333333,11.9270833 C18.8125,10.3125 18.2395833,8.82291667 17.28125,7.65625 C17.2604167,7.67708333 16.1666667,9.26041667 13.46875,10.3645833 C13.625,10.6875 13.78125,11.0208333 13.9270833,11.3541667 C13.9791667,11.46875 14.0208333,11.59375 14.0729167,11.7083333 C16.4270833,11.40625 18.75,11.9166667 18.8333333,11.9270833 Z M20,12 C20,16.4166667 16.4166667,20 12,20 C7.58333333,20 4,16.4166667 4,12 C4,7.58333333 7.58333333,4 12,4 C16.4166667,4 20,7.58333333 20,12 Z"/>
  </defs>
  <use fill="#3A4554" fill-rule="evenodd" xlink:href="#a"/>
</svg>
