<svg xmlns="http://www.w3.org/2000/svg" xmlns:xlink="http://www.w3.org/1999/xlink" width="24" height="24" viewBox="0 0 24 24">
  <defs>
    <path id="a" d="M15.3333333,19.8645833 C15.203125,19.109375 14.7083333,16.5052083 13.5104167,13.3802083 C13.4973958,13.3802083 13.4713542,13.3932292 13.4583333,13.3932292 C13.4583333,13.3932292 8.39322917,15.1640625 6.75260417,18.7317708 C6.67447917,18.6666667 6.55729167,18.5885417 6.55729167,18.5885417 C8.04166667,19.7994792 9.9296875,20.5416667 12,20.5416667 C13.1848958,20.5416667 14.3046875,20.2942708 15.3333333,19.8645833 Z M12.9244792,11.9609375 C12.7161458,11.4791667 12.4817708,10.9973958 12.234375,10.515625 C7.83333333,11.8307292 3.61458333,11.7265625 3.47135417,11.7265625 C3.45833333,11.8177083 3.45833333,11.9088542 3.45833333,12 C3.45833333,14.1875 4.29166667,16.1927083 5.64583333,17.703125 C7.9765625,13.5494792 12.5859375,12.0651042 12.5859375,12.0651042 C12.703125,12.0260417 12.8203125,12 12.9244792,11.9609375 Z M11.53125,9.20052083 C10.046875,6.5703125 8.47135417,4.43489583 8.35416667,4.27864583 C5.97135417,5.3984375 4.20052083,7.59895833 3.640625,10.2421875 C3.86197917,10.2421875 7.4296875,10.28125 11.53125,9.20052083 Z M20.4375,13.3541667 C20.2552083,13.3020833 17.8723958,12.546875 15.1119792,12.9765625 C16.2317708,16.0625 16.6875,18.5755208 16.7786458,19.0833333 C18.6927083,17.7942708 20.046875,15.7369792 20.4375,13.3541667 Z M9.93782552,3.71223958 C9.94270833,3.70898438 9.94921875,3.70572917 9.95572917,3.70572917 C9.94921875,3.70572917 9.94596354,3.70572917 9.94270833,3.70735677 L9.93782552,3.71223958 Z M17.6380208,5.59375 C16.140625,4.265625 14.1614583,3.45833333 12,3.45833333 C11.3098958,3.45833333 10.6328125,3.54947917 9.98177083,3.70572917 C10.1119792,3.875 11.7265625,5.99739583 13.1848958,8.6796875 C16.4010417,7.48177083 17.6119792,5.6328125 17.6380208,5.59375 Z M20.5416667,11.9088542 C20.515625,9.890625 19.7994792,8.02864583 18.6015625,6.5703125 C18.5755208,6.59635417 17.2083333,8.57552083 13.8359375,9.95572917 C14.03125,10.359375 14.2265625,10.7760417 14.4088542,11.1927083 C14.4739583,11.3359375 14.5260417,11.4921875 14.5911458,11.6354167 C17.5338542,11.2578125 20.4375,11.8958333 20.5416667,11.9088542 Z M22,12 C22,17.5208333 17.5208333,22 12,22 C6.47916667,22 2,17.5208333 2,12 C2,6.47916667 6.47916667,2 12,2 C17.5208333,2 22,6.47916667 22,12 Z"/>
  </defs>
  <use fill="#5A616B" fill-rule="evenodd" xlink:href="#a"/>
</svg>
