<svg xmlns="http://www.w3.org/2000/svg" xmlns:xlink="http://www.w3.org/1999/xlink" width="24" height="24" viewBox="0 0 24 24">
  <defs>
    <path id="a" d="M13.5520833,12.09375 C13.5520833,11.8333333 13.5208333,11.625 13.4895833,11.4270833 L9.71875,11.4270833 L9.71875,12.8020833 L11.9791667,12.8020833 C11.8958333,13.3854167 11.3020833,14.5208333 9.71875,14.5208333 C8.34375,14.5208333 7.22916667,13.3958333 7.22916667,12 C7.22916667,10.6041667 8.34375,9.47916667 9.71875,9.47916667 C10.4895833,9.47916667 11.0104167,9.80208333 11.3125,10.09375 L12.3958333,9.04166667 C11.6979167,8.39583333 10.7916667,8 9.71875,8 C7.5,8 5.71875,9.79166667 5.71875,12 C5.71875,14.2083333 7.5,16 9.71875,16 C12.0208333,16 13.5520833,14.375 13.5520833,12.09375 Z M17.1458333,12.5729167 L18.28125,12.5729167 L18.28125,11.4270833 L17.1458333,11.4270833 L17.1458333,10.28125 L16,10.28125 L16,11.4270833 L14.8541667,11.4270833 L14.8541667,12.5729167 L16,12.5729167 L16,13.71875 L17.1458333,13.71875 L17.1458333,12.5729167 Z M20,7 L20,17 C20,18.65625 18.65625,20 17,20 L7,20 C5.34375,20 4,18.65625 4,17 L4,7 C4,5.34375 5.34375,4 7,4 L17,4 C18.65625,4 20,5.34375 20,7 Z"/>
  </defs>
  <g fill-rule="evenodd">
    <use xlink:href="#a"/>
  </g>
</svg>
