<svg xmlns="http://www.w3.org/2000/svg" width="24" height="24" viewBox="0 0 24 24">
  <path fill="#5A616B" fill-rule="evenodd" d="M3.9,12.7142857 C3.40294373,12.7142857 3,12.2825603 3,11.75 C3,11.2174397 3.40294373,10.7857143 3.9,10.7857143 L20.1,10.7857143 C20.5970563,10.7857143 21,11.2174397 21,11.75 C21,12.2825603 20.5970563,12.7142857 20.1,12.7142857 L3.9,12.7142857 Z M3.9,6.92857143 C3.40294373,6.92857143 3,6.49684601 3,5.96428571 C3,5.43172542 3.40294373,5 3.9,5 L20.1,5 C20.5970563,5 21,5.43172542 21,5.96428571 C21,6.49684601 20.5970563,6.92857143 20.1,6.92857143 L3.9,6.92857143 Z M3.9,18.5 C3.40294373,18.5 3,18.0682746 3,17.5357143 C3,17.003154 3.40294373,16.5714286 3.9,16.5714286 L20.1,16.5714286 C20.5970563,16.5714286 21,17.003154 21,17.5357143 C21,18.0682746 20.5970563,18.5 20.1,18.5 L3.9,18.5 Z"/>
</svg>
