<svg xmlns="http://www.w3.org/2000/svg" width="24" height="24" viewBox="0 0 24 24">
  <path fill="#3A4554" fill-rule="evenodd" d="M4.8,12.8571429 C4.3581722,12.8571429 4,12.4733869 4,12 C4,11.5266131 4.3581722,11.1428571 4.8,11.1428571 L19.2,11.1428571 C19.6418278,11.1428571 20,11.5266131 20,12 C20,12.4733869 19.6418278,12.8571429 19.2,12.8571429 L4.8,12.8571429 Z M4.8,7.71428571 C4.3581722,7.71428571 4,7.33052979 4,6.85714286 C4,6.38375593 4.3581722,6 4.8,6 L19.2,6 C19.6418278,6 20,6.38375593 20,6.85714286 C20,7.33052979 19.6418278,7.71428571 19.2,7.71428571 L4.8,7.71428571 Z M4.8,18 C4.3581722,18 4,17.6162441 4,17.1428571 C4,16.6694702 4.3581722,16.2857143 4.8,16.2857143 L19.2,16.2857143 C19.6418278,16.2857143 20,16.6694702 20,17.1428571 C20,17.6162441 19.6418278,18 19.2,18 L4.8,18 Z"/>
</svg>
