<svg xmlns="http://www.w3.org/2000/svg" xmlns:xlink="http://www.w3.org/1999/xlink" width="24" height="24" viewBox="0 0 24 24">
  <defs>
    <path id="a" d="M7.08984375,8.58984375 L7.08984375,20.203125 L3.22265625,20.203125 L3.22265625,8.58984375 L7.08984375,8.58984375 Z M7.3359375,5.00390625 C7.34765625,6.1171875 6.50390625,7.0078125 5.15625,7.0078125 L5.1328125,7.0078125 C3.83203125,7.0078125 3,6.1171875 3,5.00390625 C3,3.8671875 3.8671875,3 5.1796875,3 C6.50390625,3 7.32421875,3.8671875 7.3359375,5.00390625 Z M13.078125,10.2404903 C13.5868594,9.44521385 14.5045946,8.3203125 16.5585937,8.3203125 C19.1015625,8.3203125 21,9.984375 21,13.546875 L21,20.203125 L17.1445312,20.203125 L17.1445312,13.9921875 C17.1445312,12.4335938 16.5820312,11.3671875 15.1875,11.3671875 C14.1210937,11.3671875 13.4882812,12.0820313 13.2070312,12.7734375 C13.1132812,13.03125 13.078125,13.3710938 13.078125,13.7226563 L13.078125,20.203125 L9.22265625,20.203125 C9.26953125,9.6796875 9.22265625,8.58984375 9.22265625,8.58984375 L13.078125,8.58984375 L13.078125,10.2404903 L13.078125,10.2404903 Z"/>
  </defs>
  <use fill="#5A616B" fill-rule="evenodd" xlink:href="#a"/>
</svg>
