<svg xmlns="http://www.w3.org/2000/svg" xmlns:xlink="http://www.w3.org/1999/xlink" width="24" height="24" viewBox="0 0 24 24">
  <defs>
    <path id="a" d="M18.1428571,14.3214286 L18.1428571,17.5357143 C18.1428571,19.1328125 16.8470982,20.4285714 15.25,20.4285714 L6.89285714,20.4285714 C5.29575893,20.4285714 4,19.1328125 4,17.5357143 L4,9.17857143 C4,7.58147321 5.29575893,6.28571429 6.89285714,6.28571429 L13.9642857,6.28571429 C14.1450893,6.28571429 14.2857143,6.42633929 14.2857143,6.60714286 L14.2857143,7.25 C14.2857143,7.43080357 14.1450893,7.57142857 13.9642857,7.57142857 L6.89285714,7.57142857 C6.00892857,7.57142857 5.28571429,8.29464286 5.28571429,9.17857143 L5.28571429,17.5357143 C5.28571429,18.4196429 6.00892857,19.1428571 6.89285714,19.1428571 L15.25,19.1428571 C16.1339286,19.1428571 16.8571429,18.4196429 16.8571429,17.5357143 L16.8571429,14.3214286 C16.8571429,14.140625 16.9977679,14 17.1785714,14 L17.8214286,14 C18.0022321,14 18.1428571,14.140625 18.1428571,14.3214286 Z M22,5.64285714 L22,10.7857143 C22,11.1372768 21.7087054,11.4285714 21.3571429,11.4285714 C21.1863839,11.4285714 21.0256696,11.3582589 20.9051339,11.2377232 L19.1372768,9.46986607 L12.5881696,16.0189732 C12.5279018,16.0792411 12.4375,16.1194196 12.3571429,16.1194196 C12.2767857,16.1194196 12.1863839,16.0792411 12.1261161,16.0189732 L10.9810268,14.8738839 C10.9207589,14.8136161 10.8805804,14.7232143 10.8805804,14.6428571 C10.8805804,14.5625 10.9207589,14.4720982 10.9810268,14.4118304 L17.5301339,7.86272321 L15.7622768,6.09486607 C15.6417411,5.97433036 15.5714286,5.81361607 15.5714286,5.64285714 C15.5714286,5.29129464 15.8627232,5 16.2142857,5 L21.3571429,5 C21.7087054,5 22,5.29129464 22,5.64285714 Z"/>
  </defs>
  <use fill="#5A616B" fill-rule="evenodd" xlink:href="#a"/>
</svg>
