<svg xmlns="http://www.w3.org/2000/svg" xmlns:xlink="http://www.w3.org/1999/xlink" width="24" height="24" viewBox="0 0 24 24">
  <defs>
    <path id="a" d="M7.63541667,8.96875 L7.63541667,19.2916667 L4.19791667,19.2916667 L4.19791667,8.96875 L7.63541667,8.96875 Z M7.85416667,5.78125 C7.86458333,6.77083333 7.11458333,7.5625 5.91666667,7.5625 L5.89583333,7.5625 C4.73958333,7.5625 4,6.77083333 4,5.78125 C4,4.77083333 4.77083333,4 5.9375,4 C7.11458333,4 7.84375,4.77083333 7.85416667,5.78125 Z M12.9583333,10.4359913 C13.4105416,9.72907898 14.2263063,8.72916667 16.0520833,8.72916667 C18.3125,8.72916667 20,10.2083333 20,13.375 L20,19.2916667 L16.5729167,19.2916667 L16.5729167,13.7708333 C16.5729167,12.3854167 16.0729167,11.4375 14.8333333,11.4375 C13.8854167,11.4375 13.3229167,12.0729167 13.0729167,12.6875 C12.9895833,12.9166667 12.9583333,13.21875 12.9583333,13.53125 L12.9583333,19.2916667 L9.53125,19.2916667 C9.57291667,9.9375 9.53125,8.96875 9.53125,8.96875 L12.9583333,8.96875 L12.9583333,10.4359913 L12.9583333,10.4359913 Z"/>
  </defs>
  <use fill-rule="evenodd" xlink:href="#a"/>
</svg>
