<svg xmlns="http://www.w3.org/2000/svg" xmlns:xlink="http://www.w3.org/1999/xlink" width="24" height="24" viewBox="0 0 24 24">
  <defs>
    <path id="a" d="M12,11.3389423 L19.2259615,6.81730769 L4.77403846,6.81730769 L12,11.3389423 Z M19.2259615,17.6346154 L19.2259615,8.63461538 L12,13.1129808 L4.77403846,8.63461538 L4.77403846,17.6346154 L19.2259615,17.6346154 Z M19.2259615,5 C19.7163486,5 20.1346137,5.18028666 20.4807692,5.54086538 C20.8269248,5.90144411 21,6.32692063 21,6.81730769 L21,17.6346154 C21,18.1250025 20.8269248,18.550479 20.4807692,18.9110577 C20.1346137,19.2716364 19.7163486,19.4519231 19.2259615,19.4519231 L4.77403846,19.4519231 C4.28365139,19.4519231 3.86538635,19.2716364 3.51923077,18.9110577 C3.17307519,18.550479 3,18.1250025 3,17.6346154 L3,6.81730769 C3,6.32692063 3.17307519,5.90144411 3.51923077,5.54086538 C3.86538635,5.18028666 4.28365139,5 4.77403846,5 L19.2259615,5 Z"/>
  </defs>
  <use fill="#5A616B" fill-rule="evenodd" xlink:href="#a"/>
</svg>
