<svg xmlns="http://www.w3.org/2000/svg" xmlns:xlink="http://www.w3.org/1999/xlink" width="24" height="24" viewBox="0 0 24 24">
  <defs>
    <path id="a" d="M15.0769231,10.7692308 C15.0769231,8.39423077 13.1442308,6.46153846 10.7692308,6.46153846 C8.39423077,6.46153846 6.46153846,8.39423077 6.46153846,10.7692308 C6.46153846,13.1442308 8.39423077,15.0769231 10.7692308,15.0769231 C13.1442308,15.0769231 15.0769231,13.1442308 15.0769231,10.7692308 Z M20,18.7692308 C20,19.4423077 19.4423077,20 18.7692308,20 C18.4423077,20 18.125,19.8653846 17.9038462,19.6346154 L14.6057692,16.3461538 C13.4807692,17.125 12.1346154,17.5384615 10.7692308,17.5384615 C7.02884615,17.5384615 4,14.5096154 4,10.7692308 C4,7.02884615 7.02884615,4 10.7692308,4 C14.5096154,4 17.5384615,7.02884615 17.5384615,10.7692308 C17.5384615,12.1346154 17.125,13.4807692 16.3461538,14.6057692 L19.6442308,17.9038462 C19.8653846,18.125 20,18.4423077 20,18.7692308 Z"/>
  </defs>
  <g fill-rule="evenodd">
    <use xlink:href="#a"/>
  </g>
</svg>
