<svg xmlns="http://www.w3.org/2000/svg" xmlns:xlink="http://www.w3.org/1999/xlink" width="24" height="24" viewBox="0 0 24 24">
  <defs>
    <path id="a" d="M16.0481928,15.2963855 C16.4594398,15.2963855 16.8449781,15.4024086 17.2048193,15.6144578 C17.5646604,15.8265071 17.8506013,16.112448 18.0626506,16.4722892 C18.2746999,16.8321303 18.3807229,17.2176686 18.3807229,17.6289157 C18.3807229,18.0401627 18.2746999,18.4289138 18.0626506,18.7951807 C17.8506013,19.1614476 17.5646604,19.4538142 17.2048193,19.6722892 C16.8449781,19.8907641 16.4594398,20 16.0481928,20 C15.6369457,20 15.2514074,19.8907641 14.8915663,19.6722892 C14.5317251,19.4538142 14.2457842,19.1614476 14.0337349,18.7951807 C13.8216857,18.4289138 13.7156627,18.0401627 13.7156627,17.6289157 C13.7156627,17.3718863 13.7285139,17.198394 13.7542169,17.1084337 L8.06746988,13.7927711 C7.60481696,14.2168696 7.05221205,14.4289157 6.40963855,14.4289157 C5.98554005,14.4289157 5.58715046,14.3196798 5.21445783,14.1012048 C4.8417652,13.8827298 4.54618583,13.5871505 4.32771084,13.2144578 C4.10923586,12.8417652 4,12.4433756 4,12.0192771 C4,11.5951786 4.10923586,11.196789 4.32771084,10.8240964 C4.54618583,10.4514038 4.8417652,10.1558244 5.21445783,9.9373494 C5.58715046,9.71887441 5.98554005,9.60963855 6.40963855,9.60963855 C7.05221205,9.60963855 7.60481696,9.82168463 8.06746988,10.2457831 L13.7156627,6.9686747 C13.6642568,6.7116453 13.6385542,6.52530178 13.6385542,6.40963855 C13.6385542,5.98554005 13.7477901,5.58715046 13.9662651,5.21445783 C14.18474,4.8417652 14.4803194,4.54618583 14.853012,4.32771084 C15.2257047,4.10923586 15.6240943,4 16.0481928,4 C16.4722913,4 16.8706809,4.10923586 17.2433735,4.32771084 C17.6160661,4.54618583 17.9116455,4.8417652 18.1301205,5.21445783 C18.3485955,5.58715046 18.4578313,5.98554005 18.4578313,6.40963855 C18.4578313,6.83373706 18.3485955,7.23212665 18.1301205,7.60481928 C17.9116455,7.9775119 17.6160661,8.27309128 17.2433735,8.49156627 C16.8706809,8.71004125 16.4722913,8.81927711 16.0481928,8.81927711 C15.4570252,8.81927711 14.9044202,8.59437976 14.3903614,8.14457831 L8.74216867,11.460241 C8.79357455,11.6915674 8.81927711,11.8714853 8.81927711,12 C8.81927711,12.1285147 8.79357455,12.3212839 8.74216867,12.5783133 L14.4674699,15.8939759 C14.9301228,15.4955803 15.4570252,15.2963855 16.0481928,15.2963855 Z"/>
  </defs>
  <g fill-rule="evenodd">
    <use xlink:href="#a"/>
  </g>
</svg>
