<svg xmlns="http://www.w3.org/2000/svg" xmlns:xlink="http://www.w3.org/1999/xlink" width="24" height="24" viewBox="0 0 24 24">
  <defs>
    <path id="a" d="M3.875,11 C4.04427168,11 4.19075459,11.0618483 4.31445312,11.1855469 C4.43815166,11.3092454 4.5,11.4557283 4.5,11.625 L4.5,12.875 C4.5,13.0442717 4.43815166,13.1907546 4.31445312,13.3144531 C4.19075459,13.4381517 4.04427168,13.5 3.875,13.5 L2.625,13.5 C2.45572832,13.5 2.30924541,13.4381517 2.18554688,13.3144531 C2.06184834,13.1907546 2,13.0442717 2,12.875 L2,11.625 C2,11.4557283 2.06184834,11.3092454 2.18554688,11.1855469 C2.30924541,11.0618483 2.45572832,11 2.625,11 L3.875,11 Z M21.375,11.625 C21.5442717,11.625 21.6907546,11.6868483 21.8144531,11.8105469 C21.9381517,11.9342454 22,12.0807283 22,12.25 C22,12.4192717 21.9381517,12.5657546 21.8144531,12.6894531 C21.6907546,12.8131517 21.5442717,12.875 21.375,12.875 L8.25,12.875 C8.08072832,12.875 7.93424541,12.8131517 7.81054688,12.6894531 C7.68684834,12.5657546 7.625,12.4192717 7.625,12.25 C7.625,12.0807283 7.68684834,11.9342454 7.81054688,11.8105469 C7.93424541,11.6868483 8.08072832,11.625 8.25,11.625 L21.375,11.625 Z M3.875,16 C4.04427168,16 4.19075459,16.0618483 4.31445312,16.1855469 C4.43815166,16.3092454 4.5,16.4557283 4.5,16.625 L4.5,17.875 C4.5,18.0442717 4.43815166,18.1907546 4.31445312,18.3144531 C4.19075459,18.4381517 4.04427168,18.5 3.875,18.5 L2.625,18.5 C2.45572832,18.5 2.30924541,18.4381517 2.18554688,18.3144531 C2.06184834,18.1907546 2,18.0442717 2,17.875 L2,16.625 C2,16.4557283 2.06184834,16.3092454 2.18554688,16.1855469 C2.30924541,16.0618483 2.45572832,16 2.625,16 L3.875,16 Z M21.375,16.625 C21.5442717,16.625 21.6907546,16.6868483 21.8144531,16.8105469 C21.9381517,16.9342454 22,17.0807283 22,17.25 C22,17.4192717 21.9381517,17.5657546 21.8144531,17.6894531 C21.6907546,17.8131517 21.5442717,17.875 21.375,17.875 L8.25,17.875 C8.08072832,17.875 7.93424541,17.8131517 7.81054688,17.6894531 C7.68684834,17.5657546 7.625,17.4192717 7.625,17.25 C7.625,17.0807283 7.68684834,16.9342454 7.81054688,16.8105469 C7.93424541,16.6868483 8.08072832,16.625 8.25,16.625 L21.375,16.625 Z M3.875,6 C4.04427168,6 4.19075459,6.06184834 4.31445312,6.18554688 C4.43815166,6.30924541 4.5,6.45572832 4.5,6.625 L4.5,7.875 C4.5,8.04427168 4.43815166,8.19075459 4.31445312,8.31445312 C4.19075459,8.43815166 4.04427168,8.5 3.875,8.5 L2.625,8.5 C2.45572832,8.5 2.30924541,8.43815166 2.18554688,8.31445312 C2.06184834,8.19075459 2,8.04427168 2,7.875 L2,6.625 C2,6.45572832 2.06184834,6.30924541 2.18554688,6.18554688 C2.30924541,6.06184834 2.45572832,6 2.625,6 L3.875,6 Z M8.25,7.875 C8.08072832,7.875 7.93424541,7.81315166 7.81054688,7.68945312 C7.68684834,7.56575459 7.625,7.41927168 7.625,7.25 C7.625,7.08072832 7.68684834,6.93424541 7.81054688,6.81054688 C7.93424541,6.68684834 8.08072832,6.625 8.25,6.625 L21.375,6.625 C21.5442717,6.625 21.6907546,6.68684834 21.8144531,6.81054688 C21.9381517,6.93424541 22,7.08072832 22,7.25 C22,7.41927168 21.9381517,7.56575459 21.8144531,7.68945312 C21.6907546,7.81315166 21.5442717,7.875 21.375,7.875 L8.25,7.875 Z"/>
  </defs>
  <g fill-rule="evenodd">
    <use xlink:href="#a"/>
  </g>
</svg>
