<svg xmlns="http://www.w3.org/2000/svg" xmlns:xlink="http://www.w3.org/1999/xlink" width="24" height="24" viewBox="0 0 24 24">
  <defs>
    <path id="a" d="M22,5.92893401 C21.4416244,6.74111675 20.7436548,7.46446701 19.9441624,8.04822335 C19.9568528,8.22588832 19.9568528,8.4035533 19.9568528,8.58121827 C19.9568528,14 15.8324873,20.2436548 8.29441624,20.2436548 C5.97208122,20.2436548 3.81472081,19.571066 2,18.4035533 C2.32994924,18.4416244 2.64720812,18.4543147 2.98984772,18.4543147 C4.90609137,18.4543147 6.67005076,17.8071066 8.0786802,16.7030457 C6.27664975,16.6649746 4.76649746,15.4847716 4.24619289,13.8604061 C4.5,13.8984772 4.75380711,13.9238579 5.02030457,13.9238579 C5.38832487,13.9238579 5.75634518,13.8730964 6.09898477,13.784264 C4.22081218,13.4035533 2.81218274,11.7538071 2.81218274,9.76142132 L2.81218274,9.7106599 C3.35786802,10.0152284 3.99238579,10.2055838 4.66497462,10.2309645 C3.56091371,9.49492386 2.83756345,8.23857868 2.83756345,6.81725888 C2.83756345,6.05583756 3.04060914,5.35786802 3.39593909,4.74873096 C5.41370558,7.23604061 8.44670051,8.86040609 11.8477157,9.03807107 C11.784264,8.73350254 11.7461929,8.41624365 11.7461929,8.09898477 C11.7461929,5.84010152 13.5736041,4 15.8451777,4 C17.0253807,4 18.0913706,4.49492386 18.8401015,5.29441624 C19.7664975,5.11675127 20.6548223,4.77411168 21.4416244,4.30456853 C21.1370558,5.25634518 20.4898477,6.05583756 19.6395939,6.56345178 C20.464467,6.47461929 21.2639594,6.24619289 22,5.92893401 Z"/>
  </defs>
  <use fill="#5A616B" fill-rule="evenodd" xlink:href="#a"/>
</svg>
