<svg xmlns="http://www.w3.org/2000/svg" width="106" height="24" aria-describedby="desc" aria-labelledby="title" className="a-site-nav__logo-icon" viewBox="0 0 106 24">
    <title>
        danilucaci.com logo
    </title>
    <desc>
        I am a UX/UI Designer and Front-End Developer.
    </desc>
    <path fill="#0E54C4" d="M13.38 4.16V19h-3.06v-1.58c-.387.56-.867.983-1.44 1.27-.573.287-1.227.43-1.96.43-1.013 0-1.903-.23-2.67-.69-.767-.46-1.36-1.11-1.78-1.95-.42-.84-.63-1.807-.63-2.9 0-1.08.207-2.033.62-2.86.413-.827 1-1.467 1.76-1.92.76-.453 1.633-.68 2.62-.68 1.52 0 2.68.567 3.48 1.7V4.16h3.06zM7.64 16.64c.787 0 1.43-.277 1.93-.83.5-.553.75-1.27.75-2.15 0-.88-.25-1.597-.75-2.15-.5-.553-1.143-.83-1.93-.83-.8 0-1.45.277-1.95.83-.5.553-.757 1.27-.77 2.15.013.88.27 1.597.77 2.15.5.553 1.15.83 1.95.83zM22.7 19v-1.26c-.36.453-.827.8-1.4 1.04s-1.233.36-1.98.36c-1.133 0-2.033-.31-2.7-.93-.667-.62-1-1.43-1-2.43 0-1.013.357-1.803 1.07-2.37.713-.567 1.723-.857 3.03-.87h2.96v-.2c0-.573-.19-1.017-.57-1.33-.38-.313-.937-.47-1.67-.47-1 0-2.067.313-3.2.94l-.96-2.12c.853-.427 1.653-.74 2.4-.94.747-.2 1.567-.3 2.46-.3 1.44 0 2.557.34 3.35 1.02.793.68 1.197 1.627 1.21 2.84l.02 7.02H22.7zm-2.52-2.06c.64 0 1.193-.153 1.66-.46.467-.307.747-.693.84-1.16v-.96h-2.42c-.6 0-1.043.097-1.33.29-.287.193-.43.503-.43.93 0 .413.15.743.45.99.3.247.71.37 1.23.37zm15-8.82c1.2 0 2.157.373 2.87 1.12.713.747 1.07 1.747 1.07 3V19h-3.08v-5.86c0-.68-.19-1.217-.57-1.61-.38-.393-.897-.59-1.55-.59-.76.013-1.36.277-1.8.79-.44.513-.66 1.17-.66 1.97V19h-3.08V8.24h3.08v1.88c.747-1.307 1.987-1.973 3.72-2zm6.6.12h3.08V19h-3.08V8.24zm1.52-4.78c.493 0 .897.16 1.21.48.313.32.47.733.47 1.24s-.157.92-.47 1.24c-.313.32-.717.48-1.21.48-.48 0-.877-.163-1.19-.49-.313-.327-.47-.737-.47-1.23 0-.507.157-.92.47-1.24.313-.32.71-.48 1.19-.48zm4.62.7H51V19h-3.08V4.16zM64.3 8.24V19h-3.06v-1.9c-.733 1.347-1.933 2.02-3.6 2.02-1.187 0-2.13-.37-2.83-1.11-.7-.74-1.05-1.743-1.05-3.01V8.24h3.08v5.88c0 .68.18 1.213.54 1.6.36.387.853.58 1.48.58.733-.013 1.313-.273 1.74-.78.427-.507.64-1.16.64-1.96V8.24h3.06zm10.16 3.66c-.613-.76-1.413-1.14-2.4-1.14-.773 0-1.403.263-1.89.79-.487.527-.73 1.223-.73 2.09 0 .867.24 1.57.72 2.11.48.54 1.093.81 1.84.81 1.12 0 1.953-.42 2.5-1.26l2.12 1.44a4.56 4.56 0 0 1-1.91 1.76c-.82.413-1.777.62-2.87.62-1.08 0-2.033-.227-2.86-.68a4.82 4.82 0 0 1-1.93-1.92c-.46-.827-.69-1.78-.69-2.86 0-1.093.23-2.057.69-2.89a4.851 4.851 0 0 1 1.94-1.94c.833-.46 1.797-.69 2.89-.69 1.027 0 1.94.197 2.74.59.8.393 1.44.95 1.92 1.67l-2.08 1.5zM84.5 19v-1.26c-.36.453-.827.8-1.4 1.04s-1.233.36-1.98.36c-1.133 0-2.033-.31-2.7-.93-.667-.62-1-1.43-1-2.43 0-1.013.357-1.803 1.07-2.37.713-.567 1.723-.857 3.03-.87h2.96v-.2c0-.573-.19-1.017-.57-1.33-.38-.313-.937-.47-1.67-.47-1 0-2.067.313-3.2.94l-.96-2.12c.853-.427 1.653-.74 2.4-.94.747-.2 1.567-.3 2.46-.3 1.44 0 2.557.34 3.35 1.02.793.68 1.197 1.627 1.21 2.84l.02 7.02H84.5zm-2.52-2.06c.64 0 1.193-.153 1.66-.46.467-.307.747-.693.84-1.16v-.96h-2.42c-.6 0-1.043.097-1.33.29-.287.193-.43.503-.43.93 0 .413.15.743.45.99.3.247.71.37 1.23.37zm15.38-5.04c-.613-.76-1.413-1.14-2.4-1.14-.773 0-1.403.263-1.89.79-.487.527-.73 1.223-.73 2.09 0 .867.24 1.57.72 2.11.48.54 1.093.81 1.84.81 1.12 0 1.953-.42 2.5-1.26l2.12 1.44a4.56 4.56 0 0 1-1.91 1.76c-.82.413-1.777.62-2.87.62-1.08 0-2.033-.227-2.86-.68a4.82 4.82 0 0 1-1.93-1.92c-.46-.827-.69-1.78-.69-2.86 0-1.093.23-2.057.69-2.89a4.851 4.851 0 0 1 1.94-1.94c.833-.46 1.797-.69 2.89-.69 1.027 0 1.94.197 2.74.59.8.393 1.44.95 1.92 1.67l-2.08 1.5zm4.08-3.66h3.08V19h-3.08V8.24zm1.52-4.78c.493 0 .897.16 1.21.48.313.32.47.733.47 1.24s-.157.92-.47 1.24c-.313.32-.717.48-1.21.48-.48 0-.877-.163-1.19-.49-.313-.327-.47-.737-.47-1.23 0-.507.157-.92.47-1.24.313-.32.71-.48 1.19-.48z"/>
</svg>
