<svg xmlns="http://www.w3.org/2000/svg" width="24" height="24" viewBox="0 0 24 24">
  <path fill-rule="evenodd" d="M18.1176471,15.7647059 C18.1176471,15.5098039 18.0196078,15.2745098 17.8431373,15.0980392 L15.8039216,13.0588235 C15.627451,12.8823529 15.3823529,12.7843137 15.1372549,12.7843137 C14.8529412,12.7843137 14.627451,12.8921569 14.4313725,13.0980392 C14.754902,13.4215686 15.1372549,13.6960784 15.1372549,14.1960784 C15.1372549,14.7156863 14.7156863,15.1372549 14.1960784,15.1372549 C13.6960784,15.1372549 13.4215686,14.754902 13.0980392,14.4313725 C12.8921569,14.627451 12.7745098,14.8529412 12.7745098,15.1470588 C12.7745098,15.3921569 12.872549,15.6372549 13.0490196,15.8137255 L15.0686275,17.8431373 C15.245098,18.0196078 15.4901961,18.1078431 15.7352941,18.1078431 C15.9803922,18.1078431 16.2254902,18.0196078 16.4019608,17.8529412 L17.8431373,16.4215686 C18.0196078,16.245098 18.1176471,16.0098039 18.1176471,15.7647059 Z M11.2254902,8.85294118 C11.2254902,8.60784314 11.127451,8.3627451 10.9509804,8.18627451 L8.93137255,6.15686275 C8.75490196,5.98039216 8.50980392,5.88235294 8.26470588,5.88235294 C8.01960784,5.88235294 7.7745098,5.98039216 7.59803922,6.14705882 L6.15686275,7.57843137 C5.98039216,7.75490196 5.88235294,7.99019608 5.88235294,8.23529412 C5.88235294,8.49019608 5.98039216,8.7254902 6.15686275,8.90196078 L8.19607843,10.9411765 C8.37254902,11.1176471 8.61764706,11.2058824 8.8627451,11.2058824 C9.14705882,11.2058824 9.37254902,11.1078431 9.56862745,10.9019608 C9.24509804,10.5784314 8.8627451,10.3039216 8.8627451,9.80392157 C8.8627451,9.28431373 9.28431373,8.8627451 9.80392157,8.8627451 C10.3039216,8.8627451 10.5784314,9.24509804 10.9019608,9.56862745 C11.1078431,9.37254902 11.2254902,9.14705882 11.2254902,8.85294118 Z M20,15.7647059 C20,16.5098039 19.6960784,17.2352941 19.1666667,17.754902 L17.7254902,19.1862745 C17.1960784,19.7156863 16.4803922,20 15.7352941,20 C14.9803922,20 14.2647059,19.7058824 13.7352941,19.1666667 L11.7156863,17.1372549 C11.1862745,16.6078431 10.9019608,15.8921569 10.9019608,15.1470588 C10.9019608,14.372549 11.2156863,13.6372549 11.7647059,13.0980392 L10.9019608,12.2352941 C10.3627451,12.7843137 9.6372549,13.0980392 8.8627451,13.0980392 C8.11764706,13.0980392 7.39215686,12.8039216 6.8627451,12.2745098 L4.82352941,10.2352941 C4.28431373,9.69607843 4,8.99019608 4,8.23529412 C4,7.49019608 4.30392157,6.76470588 4.83333333,6.24509804 L6.2745098,4.81372549 C6.80392157,4.28431373 7.51960784,4 8.26470588,4 C9.01960784,4 9.73529412,4.29411765 10.2647059,4.83333333 L12.2843137,6.8627451 C12.8137255,7.39215686 13.0980392,8.10784314 13.0980392,8.85294118 C13.0980392,9.62745098 12.7843137,10.3627451 12.2352941,10.9019608 L13.0980392,11.7647059 C13.6372549,11.2156863 14.3627451,10.9019608 15.1372549,10.9019608 C15.8823529,10.9019608 16.6078431,11.1960784 17.1372549,11.7254902 L19.1764706,13.7647059 C19.7156863,14.3039216 20,15.0098039 20,15.7647059 Z" transform="rotate(90 12 12)"/>
</svg>
<svg xmlns="http://www.w3.org/2000/svg" className="a-site-nav__logo-icon" viewBox="0 0 106 24" width="106" height="24" aria-labelledby="title" aria-describedby="desc">
  <title>danilucaci.com logo</title>
  <desc>I am a UX/UI Designer and Front-End Developer.</desc>
  <path fill="#0E54C4" d="M13.38,4.16 L13.38,19 L10.32,19 L10.32,17.42 C9.9333314,17.9800028 9.4533362,18.4033319 8.88,18.69 C8.3066638,18.9766681 7.653337,19.12 6.92,19.12 C5.9066616,19.12 5.0166705,18.8900023 4.25,18.43 C3.4833295,17.9699977 2.8900021,17.3200042 2.47,16.48 C2.0499979,15.6399958 1.84,14.6733388 1.84,13.58 C1.84,12.4999946 2.0466646,11.5466708 2.46,10.72 C2.8733354,9.8933292 3.4599962,9.2533356 4.22,8.8 C4.9800038,8.3466644 5.8533284,8.12 6.84,8.12 C8.3600076,8.12 9.519996,8.686661 10.32,9.82 L10.32,4.16 L13.38,4.16 Z M7.64,16.64 C8.4266706,16.64 9.0699975,16.3633361 9.57,15.81 C10.0700025,15.2566639 10.32,14.5400044 10.32,13.66 C10.32,12.7799956 10.0700025,12.0633361 9.57,11.51 C9.0699975,10.9566639 8.4266706,10.68 7.64,10.68 C6.839996,10.68 6.1900025,10.9566639 5.69,11.51 C5.1899975,12.0633361 4.9333334,12.7799956 4.92,13.66 C4.9333334,14.5400044 5.1899975,15.2566639 5.69,15.81 C6.1900025,16.3633361 6.839996,16.64 7.64,16.64 Z M22.7,19 L22.7,17.74 C22.3399982,18.1933356 21.8733362,18.5399988 21.3,18.78 C20.7266638,19.0200012 20.0666704,19.14 19.32,19.14 C18.186661,19.14 17.28667,18.8300031 16.62,18.21 C15.95333,17.5899969 15.62,16.780005 15.62,15.78 C15.62,14.7666616 15.9766631,13.9766695 16.69,13.41 C17.4033369,12.8433305 18.4133268,12.5533334 19.72,12.54 L22.68,12.54 L22.68,12.34 C22.68,11.7666638 22.4900019,11.3233349 22.11,11.01 C21.7299981,10.6966651 21.173337,10.54 20.44,10.54 C19.439995,10.54 18.373339,10.8533302 17.24,11.48 L16.28,9.36 C17.1333376,8.9333312 17.9333296,8.620001 18.68,8.42 C19.4266704,8.219999 20.2466622,8.12 21.14,8.12 C22.5800072,8.12 23.6966627,8.4599966 24.49,9.14 C25.2833373,9.8200034 25.6866666,10.7666606 25.7,11.98 L25.72,19 L22.7,19 Z M20.18,16.94 C20.8200032,16.94 21.373331,16.7866682 21.84,16.48 C22.306669,16.1733318 22.5866662,15.786669 22.68,15.32 L22.68,14.36 L20.26,14.36 C19.659997,14.36 19.2166681,14.4566657 18.93,14.65 C18.6433319,14.8433343 18.5,15.1533312 18.5,15.58 C18.5,15.9933354 18.6499985,16.3233321 18.95,16.57 C19.2500015,16.8166679 19.6599974,16.94 20.18,16.94 Z M35.18,8.12 C36.380006,8.12 37.3366631,8.4933296 38.05,9.24 C38.7633369,9.9866704 39.12,10.9866604 39.12,12.24 L39.12,19 L36.04,19 L36.04,13.14 C36.04,12.4599966 35.8500019,11.9233353 35.47,11.53 C35.0899981,11.1366647 34.5733366,10.94 33.92,10.94 C33.1599962,10.9533334 32.5600022,11.2166641 32.12,11.73 C31.6799978,12.2433359 31.46,12.899996 31.46,13.7 L31.46,19 L28.38,19 L28.38,8.24 L31.46,8.24 L31.46,10.12 C32.2066704,8.8133268 33.446658,8.1466668 35.18,8.12 Z M41.78,8.24 L44.86,8.24 L44.86,19 L41.78,19 L41.78,8.24 Z M43.3,3.46 C43.7933358,3.46 44.1966651,3.6199984 44.51,3.94 C44.8233349,4.2600016 44.98,4.6733308 44.98,5.18 C44.98,5.6866692 44.8233349,6.0999984 44.51,6.42 C44.1966651,6.7400016 43.7933358,6.9 43.3,6.9 C42.8199976,6.9 42.4233349,6.7366683 42.11,6.41 C41.7966651,6.0833317 41.64,5.6733358 41.64,5.18 C41.64,4.6733308 41.7966651,4.2600016 42.11,3.94 C42.4233349,3.6199984 42.8199976,3.46 43.3,3.46 Z M47.92,4.16 L51,4.16 L51,19 L47.92,19 L47.92,4.16 Z M64.3,8.24 L64.3,19 L61.24,19 L61.24,17.1 C60.506663,18.4466734 59.306675,19.12 57.64,19.12 C56.4533274,19.12 55.5100035,18.7500037 54.81,18.01 C54.1099965,17.2699963 53.76,16.266673 53.76,15 L53.76,8.24 L56.84,8.24 L56.84,14.12 C56.84,14.8000034 57.0199982,15.3333314 57.38,15.72 C57.7400018,16.1066686 58.2333302,16.3 58.86,16.3 C59.593337,16.2866666 60.1733312,16.0266692 60.6,15.52 C61.0266688,15.0133308 61.24,14.360004 61.24,13.56 L61.24,8.24 L64.3,8.24 Z M74.46,11.9 C73.8466636,11.1399962 73.0466716,10.76 72.06,10.76 C71.2866628,10.76 70.6566691,11.0233307 70.17,11.55 C69.6833309,12.0766693 69.44,12.773329 69.44,13.64 C69.44,14.506671 69.6799976,15.2099973 70.16,15.75 C70.6400024,16.2900027 71.2533296,16.56 72,16.56 C73.1200056,16.56 73.9533306,16.1400042 74.5,15.3 L76.62,16.74 C76.1666644,17.5000038 75.5300041,18.0866646 74.71,18.5 C73.8899959,18.9133354 72.9333388,19.12 71.84,19.12 C70.7599946,19.12 69.8066708,18.8933356 68.98,18.44 C68.1533292,17.9866644 67.5100023,17.3466708 67.05,16.52 C66.5899977,15.6933292 66.36,14.7400054 66.36,13.66 C66.36,12.5666612 66.5899977,11.6033375 67.05,10.77 C67.5100023,9.9366625 68.1566625,9.2900023 68.99,8.83 C69.8233375,8.3699977 70.7866612,8.14 71.88,8.14 C72.9066718,8.14 73.819996,8.3366647 74.62,8.73 C75.420004,9.1233353 76.0599976,9.6799964 76.54,10.4 L74.46,11.9 Z M84.5,19 L84.5,17.74 C84.1399982,18.1933356 83.6733362,18.5399988 83.1,18.78 C82.5266638,19.0200012 81.8666704,19.14 81.12,19.14 C79.986661,19.14 79.08667,18.8300031 78.42,18.21 C77.75333,17.5899969 77.42,16.780005 77.42,15.78 C77.42,14.7666616 77.7766631,13.9766695 78.49,13.41 C79.2033369,12.8433305 80.2133268,12.5533334 81.52,12.54 L84.48,12.54 L84.48,12.34 C84.48,11.7666638 84.2900019,11.3233349 83.91,11.01 C83.5299981,10.6966651 82.973337,10.54 82.24,10.54 C81.239995,10.54 80.173339,10.8533302 79.04,11.48 L78.08,9.36 C78.9333376,8.9333312 79.7333296,8.620001 80.48,8.42 C81.2266704,8.219999 82.0466622,8.12 82.94,8.12 C84.3800072,8.12 85.4966627,8.4599966 86.29,9.14 C87.0833373,9.8200034 87.4866666,10.7666606 87.5,11.98 L87.52,19 L84.5,19 Z M81.98,16.94 C82.6200032,16.94 83.173331,16.7866682 83.64,16.48 C84.106669,16.1733318 84.3866662,15.786669 84.48,15.32 L84.48,14.36 L82.06,14.36 C81.459997,14.36 81.0166681,14.4566657 80.73,14.65 C80.4433319,14.8433343 80.3,15.1533312 80.3,15.58 C80.3,15.9933354 80.4499985,16.3233321 80.75,16.57 C81.0500015,16.8166679 81.4599974,16.94 81.98,16.94 Z M97.36,11.9 C96.7466636,11.1399962 95.9466716,10.76 94.96,10.76 C94.1866628,10.76 93.5566691,11.0233307 93.07,11.55 C92.5833309,12.0766693 92.34,12.773329 92.34,13.64 C92.34,14.506671 92.5799976,15.2099973 93.06,15.75 C93.5400024,16.2900027 94.1533296,16.56 94.9,16.56 C96.0200056,16.56 96.8533306,16.1400042 97.4,15.3 L99.52,16.74 C99.0666644,17.5000038 98.4300041,18.0866646 97.61,18.5 C96.7899959,18.9133354 95.8333388,19.12 94.74,19.12 C93.6599946,19.12 92.7066708,18.8933356 91.88,18.44 C91.0533292,17.9866644 90.4100023,17.3466708 89.95,16.52 C89.4899977,15.6933292 89.26,14.7400054 89.26,13.66 C89.26,12.5666612 89.4899977,11.6033375 89.95,10.77 C90.4100023,9.9366625 91.0566625,9.2900023 91.89,8.83 C92.7233375,8.3699977 93.6866612,8.14 94.78,8.14 C95.8066718,8.14 96.719996,8.3366647 97.52,8.73 C98.320004,9.1233353 98.9599976,9.6799964 99.44,10.4 L97.36,11.9 Z M101.44,8.24 L104.52,8.24 L104.52,19 L101.44,19 L101.44,8.24 Z M102.96,3.46 C103.453336,3.46 103.856665,3.6199984 104.17,3.94 C104.483335,4.2600016 104.64,4.6733308 104.64,5.18 C104.64,5.6866692 104.483335,6.0999984 104.17,6.42 C103.856665,6.7400016 103.453336,6.9 102.96,6.9 C102.479998,6.9 102.083335,6.7366683 101.77,6.41 C101.456665,6.0833317 101.3,5.6733358 101.3,5.18 C101.3,4.6733308 101.456665,4.2600016 101.77,3.94 C102.083335,3.6199984 102.479998,3.46 102.96,3.46 Z" />
</svg>