<svg xmlns="http://www.w3.org/2000/svg" width="8.25rem" height="8.25rem" viewBox="0 0 132 132">
    <path d="M109.89 100.23l6.4-4.3-25.69-9.14-1.89-.67-4.46-1.59 1.46 4.09.67 1.9 9.27 26.06 4.3-6.41 13.12 13.13 10-10zM99.64 107l-3.44 5.12-8-22.43-.68-1.9 2 .71 22.3 7.94-5.12 3.44 13.43 13.43-7.12 7.12zM84.25 84.53l1.46 4.09a4 4 0 0 0 3-2.5zM86 78.78V20.6a6 6 0 1 0-6.91-6.9h-58.2A6 6 0 1 0 14 20.6v58.18a6 6 0 1 0 6.91 6.92h58.16a6 6 0 0 0 5.91 5 6.17 6.17 0 0 0 3.24-1l-.68-1.9 2 .71a5.91 5.91 0 0 0 1-1.75A5.79 5.79 0 0 0 91 84.7a6 6 0 0 0-5-5.92zM81.11 13.7A4 4 0 1 1 86 18.57a3.91 3.91 0 0 1-2 0 4 4 0 0 1-2.87-2.87 3.71 3.71 0 0 1-.13-1 3.61 3.61 0 0 1 .11-1zM11 14.7a4 4 0 0 1 7.87-1 3.61 3.61 0 0 1 .13 1 3.71 3.71 0 0 1-.13 1A4 4 0 0 1 16 18.57a3.91 3.91 0 0 1-2 0 4 4 0 0 1-3-3.87zm7.87 71A4 4 0 1 1 14 80.83a3.31 3.31 0 0 1 1-.13 3.31 3.31 0 0 1 1 .13 3.94 3.94 0 0 1 2.87 2.87 3.61 3.61 0 0 1 .13 1 3.71 3.71 0 0 1-.15 1zm60.22-2h-58.2A6 6 0 0 0 16 78.78V20.6a6 6 0 0 0 4.91-4.9h58.16A6 6 0 0 0 84 20.6v58.18a6 6 0 0 0-4.93 4.92zm5.18.83l1.46 4.09a3.47 3.47 0 0 1-.73.08 4 4 0 0 1-3.87-3 3.71 3.71 0 0 1-.13-1 3.61 3.61 0 0 1 .13-1A3.94 3.94 0 0 1 84 80.83a3.91 3.91 0 0 1 2 0 4 4 0 0 1 3 3.87 3.74 3.74 0 0 1-.27 1.42z"/>
    <path fill="#1445cc" d="M77.98 51.69h-56v-30h56z"/>
    <path d="M22 55.7h56v8H22zm0 20h56v-8H22z"/>
</svg>
