<svg xmlns="http://www.w3.org/2000/svg" width="132px" height="132px" viewBox="0 0 132 132">
    <path fill="#1445cc" d="M97 86.2H33a8 8 0 1 0 0 16h58l-2.44-6.87 13.71 4.88q.19-.17.39-.36a7.71 7.71 0 0 0 1-1.26A7.88 7.88 0 0 0 105 94.2a8 8 0 0 0-8-8zm-63.5 9a1 1 0 0 1 0-2h63a1 1 0 0 1 0 2z"/>
    <path d="M16.34 15.2a3 3 0 1 0 2.85 3 2.92 2.92 0 0 0-2.85-3zm9.14 0a3 3 0 1 0 2.86 3 2.92 2.92 0 0 0-2.86-3zm9.14 0a3 3 0 1 0 2.86 3 2.92 2.92 0 0 0-2.86-3zm0 0a3 3 0 1 0 2.86 3 2.92 2.92 0 0 0-2.86-3zm-9.14 0a3 3 0 1 0 2.86 3 2.92 2.92 0 0 0-2.86-3zm-9.14 0a3 3 0 1 0 2.85 3 2.92 2.92 0 0 0-2.85-3zm0 0a3 3 0 1 0 2.85 3 2.92 2.92 0 0 0-2.85-3zm9.14 0a3 3 0 1 0 2.86 3 2.92 2.92 0 0 0-2.86-3zm9.14 0a3 3 0 1 0 2.86 3 2.92 2.92 0 0 0-2.86-3zm0 0a3 3 0 1 0 2.86 3 2.92 2.92 0 0 0-2.86-3zm-9.14 0a3 3 0 1 0 2.86 3 2.92 2.92 0 0 0-2.86-3zm-9.14 0a3 3 0 1 0 2.85 3 2.92 2.92 0 0 0-2.85-3zm18.28 0a3 3 0 1 0 2.86 3 2.92 2.92 0 0 0-2.86-3zm-9.14 0a3 3 0 1 0 2.86 3 2.92 2.92 0 0 0-2.86-3zm-9.14 0a3 3 0 1 0 2.85 3 2.92 2.92 0 0 0-2.85-3zm0 0a3 3 0 1 0 2.85 3 2.92 2.92 0 0 0-2.85-3zm9.14 0a3 3 0 1 0 2.86 3 2.92 2.92 0 0 0-2.86-3zm9.14 0a3 3 0 1 0 2.86 3 2.92 2.92 0 0 0-2.86-3zm0 0a3 3 0 1 0 2.86 3 2.92 2.92 0 0 0-2.86-3zm-9.14 0a3 3 0 1 0 2.86 3 2.92 2.92 0 0 0-2.86-3zm-9.14 0a3 3 0 1 0 2.85 3 2.92 2.92 0 0 0-2.85-3zm0 0a3 3 0 1 0 2.85 3 2.92 2.92 0 0 0-2.85-3zm9.14 0a3 3 0 1 0 2.86 3 2.92 2.92 0 0 0-2.86-3zm9.14 0a3 3 0 1 0 2.86 3 2.92 2.92 0 0 0-2.86-3zm-18.28 0a3 3 0 1 0 2.85 3 2.92 2.92 0 0 0-2.85-3zm9.14 0a3 3 0 1 0 2.86 3 2.92 2.92 0 0 0-2.86-3zm9.14 0a3 3 0 1 0 2.86 3 2.92 2.92 0 0 0-2.86-3zM26 33.2v48h80v-48zm78 46H28V67.55l.3-.35 21.54-25.91L71.68 67.2l.54.64 1.52-1.29-4.34-5.15 15-10.93L103.11 66l.87.71zm0-15.13L84.52 47.92 68.1 59.86 49.83 38.18 28 64.42V35.2h76zM85.25 92l.41 1.17h2.85zm35.11 25.17H122V9.2H8v108h86.2l2.45 6.88 4.3-6.41 13.12 13.13 10-10zM10 11.2h110v14H10zm0 104v-88h110v88h-1.62l-7.47-7.47 6.4-4.3-13.63-4.84-9.55-3.39-5.62-2-3.26-1.2.41 1.17.71 2 2.49 7 4.63 13zm93.31 2l-2.65-2.66-.44.66-1.34 2-1.66 2.46-.88-2.46-.71-2-4.63-13-2.44-6.87 13.71 4.88 10.61 3.79-5.12 3.44 7.77 7.78 2 2 3.66 3.65-7.12 7.13z"/>
</svg>
